<svg xmlns="http://www.w3.org/2000/svg" xmlns:xlink="http://www.w3.org/1999/xlink" width="1000" zoomAndPan="magnify" viewBox="0 0 750 749.999995" height="1000" preserveAspectRatio="xMidYMid meet" version="1.0"><defs><clipPath id="a7231f5f80"><path d="M 75 75 L 300 75 L 300 300 L 75 300 Z M 75 75 " clip-rule="nonzero"/></clipPath><clipPath id="b7482d5765"><path d="M 110.25 75 L 264.75 75 C 284.21875 75 300 90.78125 300 110.25 L 300 264.75 C 300 284.21875 284.21875 300 264.75 300 L 110.25 300 C 90.78125 300 75 284.21875 75 264.75 L 75 110.25 C 75 90.78125 90.78125 75 110.25 75 Z M 110.25 75 " clip-rule="nonzero"/></clipPath><clipPath id="a060717b50"><path d="M 300 300 L 675 300 L 675 675 L 300 675 Z M 300 300 " clip-rule="nonzero"/></clipPath><clipPath id="0bfb3f72c4"><path d="M 335.25 300 L 639.75 300 C 659.21875 300 675 315.78125 675 335.25 L 675 639.75 C 675 659.21875 659.21875 675 639.75 675 L 335.25 675 C 315.78125 675 300 659.21875 300 639.75 L 300 335.25 C 300 315.78125 315.78125 300 335.25 300 Z M 335.25 300 " clip-rule="nonzero"/></clipPath></defs><g clip-path="url(#a7231f5f80)"><g clip-path="url(#b7482d5765)"><path fill="#2c3e50" d="M 75 75 L 300 75 L 300 300 L 75 300 Z M 75 75 " fill-opacity="1" fill-rule="nonzero"/></g></g><g clip-path="url(#a060717b50)"><g clip-path="url(#0bfb3f72c4)"><path fill="#4a148c" d="M 300 300 L 675 300 L 675 675 L 300 675 Z M 300 300 " fill-opacity="1" fill-rule="nonzero"/></g></g></svg>
