<svg xmlns="http://www.w3.org/2000/svg" xmlns:xlink="http://www.w3.org/1999/xlink" width="2679" zoomAndPan="magnify" viewBox="0 0 2009.25 383.999986" height="512" preserveAspectRatio="xMidYMid meet" version="1.0"><defs><g/><clipPath id="ace0b101ed"><path d="M 176 0.0703125 L 1404 0.0703125 L 1404 383.925781 L 176 383.925781 Z M 176 0.0703125 " clip-rule="nonzero"/></clipPath><clipPath id="280e69fd28"><path d="M 1030 103 L 1223 103 L 1223 383.925781 L 1030 383.925781 Z M 1030 103 " clip-rule="nonzero"/></clipPath><clipPath id="efe399f2e7"><rect x="0" width="1228" y="0" height="384"/></clipPath><clipPath id="f8a67dcfcf"><rect x="0" width="433" y="0" height="230"/></clipPath></defs><g clip-path="url(#ace0b101ed)"><g transform="matrix(1, 0, 0, 1, 176, 0.000000000000036707)"><g clip-path="url(#efe399f2e7)"><g fill="#ffffff" fill-opacity="1"><g transform="translate(0.730293, 296.663146)"><g><path d="M 54.292969 -171.414062 C 56.15625 -173.046875 57.96875 -174.566406 59.734375 -175.976562 C 61.886719 -177.703125 64.238281 -179.269531 66.78125 -180.683594 L 72.691406 -170.042969 L 65.9375 -180.171875 C 68.957031 -182.179688 72.097656 -184.003906 75.359375 -185.636719 C 78.878906 -187.394531 82.589844 -188.8125 86.492188 -189.890625 C 90.144531 -190.898438 93.804688 -191.65625 97.476562 -192.160156 C 101.164062 -192.667969 105.015625 -192.921875 109.035156 -192.921875 C 126.914062 -192.921875 141.917969 -188.308594 154.046875 -179.082031 C 161.382812 -173.582031 167.410156 -166.765625 172.132812 -158.632812 L 161.605469 -152.519531 L 152.527344 -160.625 C 158.414062 -167.21875 164.664062 -173.113281 171.285156 -178.316406 L 171.550781 -178.523438 L 171.824219 -178.714844 C 174.359375 -180.492188 177.015625 -182.132812 179.792969 -183.648438 C 182.671875 -185.222656 185.679688 -186.59375 188.808594 -187.769531 C 191.875 -188.917969 195.003906 -189.875 198.195312 -190.640625 C 201.375 -191.402344 204.613281 -191.976562 207.914062 -192.355469 C 211.191406 -192.734375 214.574219 -192.921875 218.070312 -192.921875 L 221.804688 -192.921875 C 223.359375 -192.921875 224.917969 -192.851562 226.476562 -192.710938 C 228.023438 -192.570312 229.574219 -192.359375 231.121094 -192.078125 C 232.378906 -191.847656 233.585938 -191.621094 234.738281 -191.390625 L 237.980469 -190.742188 C 239.4375 -190.449219 240.890625 -190.085938 242.335938 -189.652344 C 243.765625 -189.222656 245.1875 -188.726562 246.605469 -188.160156 L 250.0625 -186.777344 L 250.273438 -186.683594 C 252.640625 -185.628906 254.945312 -184.445312 257.179688 -183.128906 C 259.519531 -181.753906 261.726562 -180.234375 263.804688 -178.574219 C 265.660156 -177.089844 267.457031 -175.542969 269.1875 -173.933594 C 271.238281 -172.03125 273.128906 -169.925781 274.863281 -167.609375 L 265.125 -160.308594 L 274.34375 -168.253906 C 280.945312 -160.597656 285.679688 -151.558594 288.542969 -141.144531 L 276.808594 -137.917969 L 288.441406 -141.496094 C 291.394531 -131.894531 292.871094 -121.398438 292.871094 -110.007812 L 292.871094 20.285156 L 223.097656 20.285156 L 223.097656 -107.738281 C 223.097656 -115.011719 221.734375 -120.492188 219 -124.183594 L 228.78125 -131.425781 L 219.195312 -123.925781 C 217.738281 -125.789062 215.632812 -126.71875 212.878906 -126.71875 C 210.683594 -126.71875 208.628906 -126.300781 206.722656 -125.46875 C 203.859375 -124.195312 201.113281 -122.492188 198.488281 -120.359375 C 195.339844 -117.765625 192.242188 -114.757812 189.199219 -111.335938 L 180.105469 -119.421875 L 189.839844 -112.117188 C 188.5 -110.328125 187.050781 -108.433594 185.492188 -106.429688 C 184.234375 -104.8125 183.171875 -103.3125 182.3125 -101.9375 L 171.992188 -108.386719 L 184.160156 -108.386719 L 184.160156 20.285156 L 114.386719 20.285156 L 114.386719 -107.738281 C 114.386719 -115.011719 113.023438 -120.492188 110.289062 -124.183594 L 120.070312 -131.425781 L 110.484375 -123.925781 C 109.027344 -125.789062 106.921875 -126.71875 104.167969 -126.71875 C 102.09375 -126.71875 99.960938 -126.269531 97.769531 -125.363281 L 97.589844 -125.292969 L 97.40625 -125.222656 C 96.242188 -124.785156 94.949219 -124.171875 93.527344 -123.382812 C 92.335938 -122.71875 91.199219 -121.914062 90.117188 -120.96875 L 89.515625 -120.445312 L 88.851562 -120 C 88.5625 -119.808594 88.261719 -119.582031 87.945312 -119.320312 C 87.578125 -119.011719 87.257812 -118.71875 86.976562 -118.441406 C 86.175781 -117.640625 85.308594 -116.851562 84.375 -116.074219 C 84.011719 -115.769531 83.6875 -115.476562 83.40625 -115.195312 C 83.125 -114.914062 82.832031 -114.589844 82.527344 -114.222656 C 81.75 -113.292969 80.90625 -112.371094 80 -111.460938 L 71.390625 -120.070312 L 81.128906 -112.765625 C 79.71875 -110.886719 78.199219 -108.957031 76.570312 -106.976562 C 75.390625 -105.546875 74.402344 -104.191406 73.601562 -102.910156 L 63.28125 -109.359375 L 75.449219 -109.359375 L 75.449219 20.285156 L 5.675781 20.285156 L 5.675781 -189.03125 L 74.476562 -189.03125 L 74.476562 -162.253906 L 62.304688 -162.253906 Z M 50.136719 -135.433594 L 50.136719 -176.859375 L 62.304688 -176.859375 L 62.304688 -164.6875 L 17.847656 -164.6875 L 17.847656 -176.859375 L 30.019531 -176.859375 L 30.019531 8.113281 L 17.847656 8.113281 L 17.847656 -4.058594 L 63.28125 -4.058594 L 63.28125 8.113281 L 51.109375 8.113281 L 51.109375 -112.851562 L 52.957031 -115.8125 C 54.320312 -117.992188 55.925781 -120.203125 57.777344 -122.453125 C 59.175781 -124.148438 60.46875 -125.789062 61.65625 -127.371094 L 62.175781 -128.0625 L 62.785156 -128.675781 C 63.175781 -129.0625 63.523438 -129.441406 63.828125 -129.808594 C 64.605469 -130.738281 65.390625 -131.605469 66.195312 -132.40625 C 66.996094 -133.207031 67.859375 -133.996094 68.792969 -134.773438 C 69.160156 -135.078125 69.484375 -135.371094 69.761719 -135.652344 C 70.5625 -136.453125 71.429688 -137.242188 72.363281 -138.019531 C 73.34375 -138.835938 74.339844 -139.582031 75.351562 -140.253906 L 82.101562 -130.128906 L 74.085938 -139.289062 C 76.464844 -141.371094 79.007812 -143.160156 81.707031 -144.664062 C 84.179688 -146.035156 86.566406 -147.15625 88.859375 -148.015625 L 93.132812 -136.617188 L 88.5 -147.875 C 93.664062 -150 98.886719 -151.0625 104.167969 -151.0625 C 114.828125 -151.0625 123.324219 -147.015625 129.652344 -138.929688 L 129.753906 -138.800781 L 129.847656 -138.671875 C 135.769531 -130.679688 138.730469 -120.367188 138.730469 -107.738281 L 138.730469 8.113281 L 126.558594 8.113281 L 126.558594 -4.058594 L 171.992188 -4.058594 L 171.992188 8.113281 L 159.820312 8.113281 L 159.820312 -111.878906 L 161.667969 -114.835938 C 162.972656 -116.921875 164.507812 -119.101562 166.277344 -121.375 C 167.75 -123.265625 169.109375 -125.046875 170.367188 -126.722656 L 170.671875 -127.128906 L 171.007812 -127.507812 C 174.886719 -131.871094 178.929688 -135.785156 183.136719 -139.25 C 187.433594 -142.742188 192.046875 -145.582031 196.96875 -147.769531 C 201.984375 -149.964844 207.289062 -151.0625 212.878906 -151.0625 C 223.539062 -151.0625 232.035156 -147.015625 238.363281 -138.929688 L 238.464844 -138.800781 L 238.558594 -138.671875 C 244.480469 -130.679688 247.441406 -120.367188 247.441406 -107.738281 L 247.441406 8.113281 L 235.269531 8.113281 L 235.269531 -4.058594 L 280.703125 -4.058594 L 280.703125 8.113281 L 268.53125 8.113281 L 268.53125 -110.007812 C 268.53125 -118.957031 267.414062 -127.066406 265.175781 -134.335938 L 265.121094 -134.511719 L 265.074219 -134.691406 C 263.175781 -141.582031 260.121094 -147.472656 255.90625 -152.363281 L 255.636719 -152.675781 L 255.386719 -153.003906 C 254.527344 -154.152344 253.605469 -155.183594 252.625 -156.09375 C 251.328125 -157.296875 249.988281 -158.453125 248.597656 -159.566406 C 247.429688 -160.5 246.175781 -161.363281 244.839844 -162.148438 C 243.398438 -162.996094 241.914062 -163.761719 240.386719 -164.4375 L 245.332031 -175.558594 L 240.808594 -164.261719 L 237.566406 -165.558594 C 236.820312 -165.855469 236.078125 -166.117188 235.34375 -166.335938 C 234.625 -166.550781 233.914062 -166.730469 233.207031 -166.871094 L 229.964844 -167.519531 C 228.949219 -167.722656 227.886719 -167.925781 226.765625 -168.128906 C 225.933594 -168.28125 225.101562 -168.394531 224.269531 -168.46875 C 223.449219 -168.542969 222.625 -168.582031 221.804688 -168.582031 L 218.070312 -168.582031 C 215.507812 -168.582031 213.054688 -168.445312 210.703125 -168.175781 C 208.378906 -167.90625 206.101562 -167.503906 203.875 -166.96875 C 201.65625 -166.4375 199.484375 -165.773438 197.359375 -164.976562 C 195.296875 -164.203125 193.328125 -163.304688 191.449219 -162.28125 C 189.464844 -161.199219 187.578125 -160.03125 185.785156 -158.773438 L 178.804688 -168.746094 L 186.324219 -159.175781 C 180.832031 -154.859375 175.617188 -149.9375 170.683594 -144.414062 L 159.507812 -131.894531 L 151.082031 -146.410156 C 148.015625 -151.6875 144.089844 -156.121094 139.308594 -159.707031 C 131.535156 -165.625 121.445312 -168.582031 109.035156 -168.582031 C 106.132812 -168.582031 103.386719 -168.402344 100.800781 -168.046875 C 98.195312 -167.6875 95.582031 -167.144531 92.964844 -166.421875 C 90.589844 -165.769531 88.351562 -164.914062 86.246094 -163.863281 C 83.886719 -162.683594 81.617188 -161.367188 79.441406 -159.917969 L 79.03125 -159.644531 L 78.601562 -159.40625 C 77.25 -158.652344 76.03125 -157.84375 74.9375 -156.96875 C 73.457031 -155.785156 71.917969 -154.492188 70.320312 -153.097656 Z M 50.136719 -135.433594 "/></g></g></g><g fill="#ffffff" fill-opacity="1"><g transform="translate(297.626328, 296.663146)"><g><path d="M -5.679688 -83.398438 C -5.679688 -98.175781 -3.402344 -112.15625 1.152344 -125.339844 C 6.0625 -138.847656 12.9375 -150.511719 21.78125 -160.335938 C 30.628906 -170.414062 41.289062 -178.355469 53.765625 -184.160156 C 66.316406 -190.003906 79.875 -192.921875 94.433594 -192.921875 C 106.863281 -192.921875 118.261719 -190.773438 128.625 -186.480469 L 128.871094 -186.378906 L 129.109375 -186.265625 C 132.660156 -184.609375 136.09375 -182.832031 139.414062 -180.9375 L 133.375 -170.367188 L 121.203125 -170.367188 L 121.203125 -189.03125 L 188.378906 -189.03125 L 188.378906 -40.886719 C 188.378906 -39.292969 188.449219 -38.21875 188.585938 -37.675781 C 188.492188 -38.039062 188.300781 -38.476562 188 -38.988281 C 187.1875 -40.378906 186.027344 -41.507812 184.519531 -42.371094 L 184.882812 -42.160156 L 185.230469 -41.929688 C 185.785156 -41.5625 186.453125 -41.378906 187.242188 -41.378906 L 214.019531 -41.378906 L 206.746094 -15.527344 L 200.613281 7.082031 L 196.492188 21.90625 L 181.078125 21.90625 C 169.878906 21.90625 160.140625 19.988281 151.863281 16.152344 C 143.042969 12.066406 136.042969 5.925781 130.871094 -2.261719 L 141.164062 -8.761719 L 149.769531 -0.15625 L 148.796875 0.816406 C 146.53125 3.082031 144.140625 5.222656 141.625 7.234375 C 138.90625 9.410156 136.042969 11.316406 133.035156 12.957031 L 127.207031 2.273438 L 133.535156 12.667969 C 127.609375 16.277344 121.023438 19.097656 113.785156 21.128906 C 106.542969 23.160156 98.796875 24.179688 90.539062 24.179688 C 83.832031 24.179688 77.296875 23.492188 70.9375 22.121094 C 64.695312 20.773438 58.632812 18.875 52.757812 16.425781 L 52.613281 16.367188 L 52.472656 16.304688 C 40.730469 11.058594 30.496094 3.574219 21.769531 -6.148438 C 13.164062 -15.738281 6.429688 -27.097656 1.566406 -40.230469 C -3.265625 -53.035156 -5.679688 -67.425781 -5.679688 -83.398438 Z M 18.660156 -83.398438 C 18.660156 -70.382812 20.570312 -58.8125 24.394531 -48.683594 C 28.183594 -38.453125 33.347656 -29.695312 39.886719 -22.40625 C 46.304688 -15.253906 53.8125 -9.757812 62.402344 -5.921875 L 57.4375 5.191406 L 62.121094 -6.042969 C 66.628906 -4.164062 71.277344 -2.707031 76.066406 -1.675781 C 80.738281 -0.667969 85.5625 -0.164062 90.539062 -0.164062 C 96.5625 -0.164062 102.117188 -0.878906 107.207031 -2.308594 C 112.300781 -3.738281 116.855469 -5.675781 120.878906 -8.125 L 121.125 -8.273438 L 121.378906 -8.414062 C 123.132812 -9.371094 124.8125 -10.492188 126.417969 -11.777344 C 128.230469 -13.226562 129.953125 -14.765625 131.582031 -16.394531 L 143.324219 -28.132812 L 151.453125 -15.261719 C 156.851562 -6.710938 166.726562 -2.4375 181.078125 -2.4375 L 187.242188 -2.4375 L 187.242188 9.734375 L 175.515625 6.476562 L 177.121094 0.707031 L 183.316406 -22.117188 L 186.234375 -32.5 L 197.953125 -29.207031 L 197.953125 -17.035156 L 187.242188 -17.035156 C 181.539062 -17.035156 176.371094 -18.582031 171.730469 -21.675781 L 178.480469 -31.800781 L 172.441406 -21.234375 C 168.679688 -23.386719 166.1875 -26.898438 164.96875 -31.769531 C 164.347656 -34.253906 164.039062 -37.292969 164.039062 -40.886719 L 164.039062 -176.859375 L 176.210938 -176.859375 L 176.210938 -164.6875 L 133.375 -164.6875 L 133.375 -176.859375 L 145.546875 -176.859375 L 145.546875 -149.394531 L 127.335938 -159.800781 C 124.597656 -161.367188 121.757812 -162.832031 118.816406 -164.207031 L 123.964844 -175.234375 L 119.300781 -163.992188 C 111.921875 -167.050781 103.632812 -168.582031 94.433594 -168.582031 C 83.464844 -168.582031 73.332031 -166.417969 64.035156 -162.09375 C 54.65625 -157.726562 46.601562 -151.714844 39.875 -144.054688 C 33.140625 -136.574219 27.902344 -127.6875 24.160156 -117.394531 C 20.496094 -106.78125 18.660156 -95.449219 18.660156 -83.398438 Z M 96.648438 -42.34375 C 101.789062 -42.503906 106.59375 -43.703125 111.054688 -45.933594 L 116.5 -35.046875 L 110.589844 -45.6875 C 112.199219 -46.582031 113.707031 -47.511719 115.121094 -48.484375 C 116.371094 -49.34375 117.488281 -50.226562 118.464844 -51.128906 C 119.753906 -52.316406 120.988281 -53.503906 122.171875 -54.6875 L 130.777344 -46.082031 L 118.605469 -46.082031 L 118.605469 -129.480469 L 130.777344 -129.480469 L 124.515625 -119.042969 C 120.90625 -121.207031 117.011719 -123.019531 112.824219 -124.472656 C 108.027344 -126.1875 102.871094 -127.042969 97.351562 -127.042969 C 92.640625 -127.042969 88.386719 -126.171875 84.589844 -124.425781 C 80.886719 -122.722656 77.679688 -120.214844 74.972656 -116.90625 L 74.78125 -116.671875 L 74.578125 -116.445312 C 71.664062 -113.226562 69.390625 -109.003906 67.757812 -103.78125 L 67.707031 -103.617188 L 67.652344 -103.457031 C 65.710938 -97.816406 64.742188 -91.453125 64.742188 -84.371094 C 64.742188 -77.546875 65.699219 -71.441406 67.609375 -66.050781 L 67.6875 -65.832031 L 67.757812 -65.613281 C 68.570312 -63.007812 69.566406 -60.6875 70.738281 -58.652344 C 72.03125 -56.414062 73.441406 -54.359375 74.972656 -52.488281 C 76.332031 -50.828125 77.835938 -49.359375 79.484375 -48.085938 C 81.011719 -46.902344 82.582031 -45.976562 84.1875 -45.308594 L 84.574219 -45.148438 L 84.949219 -44.960938 C 86.652344 -44.109375 88.476562 -43.464844 90.421875 -43.035156 C 92.472656 -42.578125 94.675781 -42.351562 97.027344 -42.351562 L 97.027344 -30.179688 Z M 97.410156 -18.015625 L 97.21875 -18.007812 L 97.027344 -18.007812 C 92.894531 -18.007812 88.929688 -18.429688 85.140625 -19.273438 C 81.246094 -20.136719 77.550781 -21.441406 74.0625 -23.1875 L 79.503906 -34.074219 L 74.824219 -22.839844 C 71.238281 -24.332031 67.828125 -26.328125 64.597656 -28.824219 C 61.488281 -31.230469 58.664062 -33.980469 56.132812 -37.074219 C 53.765625 -39.964844 51.605469 -43.105469 49.65625 -46.488281 C 47.582031 -50.078125 45.871094 -54.03125 44.523438 -58.351562 L 56.140625 -61.980469 L 44.671875 -57.910156 C 41.824219 -65.933594 40.398438 -74.753906 40.398438 -84.371094 C 40.398438 -94.164062 41.808594 -103.164062 44.628906 -111.371094 L 56.140625 -107.414062 L 44.523438 -111.042969 C 47.21875 -119.667969 51.21875 -126.914062 56.527344 -132.777344 L 65.550781 -124.613281 L 56.132812 -132.320312 C 61.210938 -138.527344 67.308594 -143.269531 74.417969 -146.539062 C 81.441406 -149.769531 89.085938 -151.386719 97.351562 -151.386719 C 105.683594 -151.386719 113.503906 -150.078125 120.824219 -147.464844 C 126.589844 -145.460938 131.996094 -142.945312 137.039062 -139.917969 L 142.949219 -136.371094 L 142.949219 -41.039062 L 139.382812 -37.472656 C 137.972656 -36.0625 136.503906 -34.652344 134.976562 -33.242188 C 133.144531 -31.550781 131.121094 -29.945312 128.910156 -28.425781 C 126.863281 -27.015625 124.695312 -25.675781 122.410156 -24.40625 L 122.179688 -24.28125 L 121.941406 -24.160156 C 114.289062 -20.335938 106.113281 -18.285156 97.410156 -18.015625 Z M 97.410156 -18.015625 "/></g></g></g><g fill="#ffffff" fill-opacity="1"><g transform="translate(497.828386, 296.663146)"><g><path d="M 37.394531 -53.140625 C 40.910156 -49.941406 45.664062 -47.316406 51.652344 -45.261719 L 51.941406 -45.160156 C 58.144531 -42.855469 64.953125 -41.703125 72.367188 -41.703125 C 80.605469 -41.703125 86.105469 -42.582031 88.871094 -44.34375 L 95.40625 -34.074219 L 88.386719 -44.015625 C 88.738281 -44.265625 89.015625 -44.488281 89.214844 -44.6875 L 89.246094 -44.695312 C 88.914062 -44.175781 88.75 -43.554688 88.75 -42.835938 C 88.75 -43.027344 88.742188 -43.175781 88.71875 -43.277344 C 88.71875 -43.277344 88.726562 -43.261719 88.738281 -43.234375 L 88.453125 -43.804688 L 88.230469 -44.402344 C 88.3125 -44.179688 88.378906 -44.035156 88.425781 -43.96875 C 88.269531 -44.183594 88.007812 -44.449219 87.644531 -44.773438 L 95.730469 -53.867188 L 87.9375 -44.519531 C 86.183594 -45.980469 83.425781 -47.566406 79.660156 -49.277344 L 84.699219 -60.359375 L 80.847656 -48.8125 C 79.230469 -49.351562 77.507812 -50.011719 75.683594 -50.792969 C 74.34375 -51.371094 72.894531 -51.949219 71.335938 -52.53125 C 69.484375 -53.226562 67.582031 -53.976562 65.621094 -54.785156 C 64.15625 -55.386719 62.535156 -55.957031 60.753906 -56.488281 L 60.511719 -56.5625 L 60.273438 -56.644531 C 54.253906 -58.726562 48.734375 -60.9375 43.707031 -63.277344 C 38.5625 -65.667969 33.816406 -68.253906 29.46875 -71.035156 C 24.957031 -73.914062 20.917969 -77.011719 17.355469 -80.320312 C 11.183594 -86.210938 6.578125 -93.15625 3.546875 -101.148438 C 0.640625 -108.8125 -0.8125 -117.175781 -0.8125 -126.234375 C -0.8125 -135.9375 1.347656 -145.109375 5.664062 -153.746094 L 5.871094 -154.164062 L 6.113281 -154.5625 C 7.609375 -157.054688 9.226562 -159.484375 10.96875 -161.847656 C 12.773438 -164.296875 14.707031 -166.617188 16.773438 -168.8125 C 19.074219 -171.257812 21.652344 -173.480469 24.496094 -175.472656 L 31.476562 -165.5 L 23.914062 -175.035156 C 31.429688 -180.996094 40.382812 -185.5 50.773438 -188.539062 C 60.515625 -191.460938 71.5 -192.921875 83.722656 -192.921875 C 96.453125 -192.921875 107.863281 -191.601562 117.960938 -188.957031 L 118.21875 -188.886719 C 123.089844 -187.496094 127.683594 -185.980469 132.003906 -184.347656 C 136.578125 -182.617188 140.863281 -180.628906 144.859375 -178.378906 L 138.890625 -167.773438 L 144.332031 -178.660156 L 160.410156 -170.621094 L 154.597656 -154.015625 L 146.527344 -130.128906 L 138.527344 -106.925781 L 116.804688 -118.992188 L 116.539062 -119.160156 C 112.300781 -121.804688 107.371094 -123.945312 101.75 -125.578125 C 95.96875 -127.203125 89.527344 -128.019531 82.425781 -128.019531 C 79.824219 -128.019531 77.492188 -127.851562 75.425781 -127.523438 C 73.574219 -127.226562 72.078125 -126.855469 70.9375 -126.410156 C 70.222656 -126.132812 69.730469 -125.878906 69.449219 -125.648438 L 69.054688 -125.320312 L 68.636719 -125.027344 C 68.136719 -124.675781 67.773438 -124.386719 67.546875 -124.160156 C 67.65625 -124.269531 67.804688 -124.5 67.992188 -124.84375 C 68.207031 -125.242188 68.3125 -125.8125 68.3125 -126.558594 C 68.3125 -126.492188 68.3125 -126.4375 68.316406 -126.398438 C 68.316406 -126.402344 68.3125 -126.421875 68.308594 -126.449219 C 68.273438 -126.667969 68.199219 -126.910156 68.089844 -127.183594 L 56.789062 -122.664062 L 67.675781 -128.109375 C 67.304688 -128.851562 66.894531 -129.449219 66.449219 -129.890625 L 66.425781 -129.917969 C 66.519531 -129.84375 66.636719 -129.753906 66.785156 -129.648438 C 68.316406 -128.578125 70.605469 -127.324219 73.652344 -125.890625 L 68.472656 -114.875 L 72.945312 -126.195312 L 79.921875 -123.4375 C 82.191406 -122.550781 84.847656 -121.597656 87.898438 -120.582031 L 88.175781 -120.488281 L 96.398438 -117.300781 C 98.96875 -116.296875 101.472656 -115.292969 103.910156 -114.296875 C 106.492188 -113.242188 108.910156 -112.179688 111.164062 -111.109375 C 113.128906 -110.179688 115.042969 -109.300781 116.898438 -108.476562 L 117.269531 -108.3125 L 117.625 -108.125 C 126.855469 -103.265625 134.480469 -97.953125 140.496094 -92.1875 C 147.382812 -85.304688 152.210938 -77.707031 154.980469 -69.398438 L 143.433594 -65.550781 L 154.8125 -69.867188 C 157.722656 -62.203125 159.175781 -53.949219 159.175781 -45.105469 C 159.175781 -34.222656 156.757812 -24.210938 151.917969 -15.074219 C 147.121094 -6.277344 140.652344 1.140625 132.511719 7.179688 L 132.335938 7.308594 L 132.15625 7.433594 C 128.121094 10.207031 123.785156 12.660156 119.148438 14.792969 C 114.582031 16.890625 109.730469 18.671875 104.589844 20.140625 L 104.332031 20.210938 C 94.234375 22.855469 83.253906 24.179688 71.390625 24.179688 C 56.304688 24.179688 42.648438 22.261719 30.429688 18.425781 C 17.972656 14.277344 7.53125 8.976562 -0.902344 2.527344 L -14.773438 -8.078125 L -6.421875 -23.109375 L 4.21875 -17.199219 L -6.636719 -22.699219 L 5.691406 -47.039062 L 16.9375 -70.335938 L 37.214844 -53.300781 Z M 21.019531 -35.128906 L 29.207031 -44.132812 L 21.378906 -34.8125 L 13.265625 -41.628906 L 21.09375 -50.949219 L 32.054688 -45.65625 L 27.40625 -36.035156 L 14.972656 -11.492188 L 11.613281 -5.445312 L 0.972656 -11.359375 L 8.367188 -21.027344 L 13.882812 -16.808594 C 20.164062 -12.007812 28.105469 -8.003906 37.71875 -4.796875 C 47.5625 -1.707031 58.789062 -0.164062 71.390625 -0.164062 C 81.164062 -0.164062 90.089844 -1.222656 98.164062 -3.335938 L 101.246094 8.4375 L 97.902344 -3.265625 C 101.851562 -4.394531 105.542969 -5.746094 108.984375 -7.328125 C 112.351562 -8.875 115.480469 -10.640625 118.367188 -12.625 L 125.261719 -2.597656 L 118.007812 -12.371094 C 123.28125 -16.28125 127.414062 -20.980469 130.40625 -26.464844 C 133.355469 -32.039062 134.832031 -38.253906 134.832031 -45.105469 C 134.832031 -50.976562 133.90625 -56.351562 132.054688 -61.234375 L 131.964844 -61.46875 L 131.886719 -61.703125 C 130.328125 -66.375 127.585938 -70.679688 123.65625 -74.613281 C 119.285156 -78.796875 113.496094 -82.789062 106.289062 -86.582031 L 111.957031 -97.351562 L 107.011719 -86.230469 C 104.976562 -87.136719 102.886719 -88.097656 100.742188 -89.113281 C 98.886719 -89.992188 96.867188 -90.875 94.691406 -91.765625 C 92.371094 -92.71875 90.003906 -93.664062 87.597656 -94.605469 L 79.648438 -97.6875 L 84.046875 -109.035156 L 80.199219 -97.488281 C 76.757812 -98.636719 73.683594 -99.738281 70.972656 -100.800781 L 63.636719 -103.699219 L 63.289062 -103.863281 C 58.984375 -105.890625 55.429688 -107.882812 52.636719 -109.839844 C 49.480469 -112.09375 47.238281 -114.554688 45.902344 -117.222656 L 45.675781 -117.675781 L 45.488281 -118.144531 C 44.476562 -120.675781 43.96875 -123.480469 43.96875 -126.558594 C 43.96875 -129.902344 44.832031 -133.179688 46.558594 -136.386719 C 48.230469 -139.488281 50.9375 -142.347656 54.675781 -144.96875 L 61.65625 -134.996094 L 53.867188 -144.347656 C 56.183594 -146.277344 58.929688 -147.859375 62.113281 -149.097656 C 64.867188 -150.167969 68.019531 -150.988281 71.578125 -151.558594 C 74.921875 -152.09375 78.535156 -152.359375 82.425781 -152.359375 C 91.765625 -152.359375 100.46875 -151.226562 108.535156 -148.957031 C 116.324219 -146.695312 123.292969 -143.644531 129.441406 -139.800781 L 122.988281 -129.480469 L 128.902344 -140.121094 L 137.664062 -135.25 L 131.75 -124.613281 L 120.246094 -128.578125 L 123.464844 -137.917969 L 131.621094 -162.058594 L 133.894531 -168.546875 L 145.382812 -164.527344 L 139.9375 -153.640625 L 133.183594 -157.019531 L 132.921875 -157.164062 C 129.996094 -158.8125 126.816406 -160.285156 123.386719 -161.582031 C 119.703125 -162.976562 115.75 -164.273438 111.535156 -165.480469 L 114.875 -177.183594 L 111.792969 -165.410156 C 103.71875 -167.523438 94.359375 -168.582031 83.722656 -168.582031 C 73.882812 -168.582031 65.175781 -167.445312 57.613281 -165.175781 C 50.261719 -163.027344 44.074219 -159.957031 39.039062 -155.964844 L 38.753906 -155.738281 L 38.457031 -155.53125 C 36.976562 -154.492188 35.65625 -153.359375 34.5 -152.128906 C 33.101562 -150.644531 31.792969 -149.070312 30.566406 -147.410156 C 29.28125 -145.664062 28.085938 -143.875 26.988281 -142.039062 L 16.550781 -148.300781 L 27.4375 -142.859375 C 24.832031 -137.648438 23.527344 -132.109375 23.527344 -126.234375 C 23.527344 -120.148438 24.457031 -114.664062 26.308594 -109.78125 C 28.035156 -105.230469 30.570312 -101.355469 33.917969 -98.160156 C 36.410156 -95.84375 39.296875 -93.640625 42.574219 -91.546875 C 46.011719 -89.351562 49.8125 -87.285156 53.972656 -85.347656 C 58.246094 -83.359375 63 -81.460938 68.234375 -79.648438 L 64.253906 -68.148438 L 67.75 -79.804688 C 70.300781 -79.039062 72.679688 -78.203125 74.890625 -77.292969 C 76.609375 -76.585938 78.273438 -75.929688 79.882812 -75.324219 C 81.789062 -74.609375 83.585938 -73.890625 85.273438 -73.167969 C 86.476562 -72.652344 87.566406 -72.230469 88.546875 -71.90625 L 89.152344 -71.703125 L 89.734375 -71.4375 C 95.488281 -68.824219 100.085938 -66.082031 103.523438 -63.21875 L 103.671875 -63.09375 L 103.816406 -62.964844 C 107.265625 -59.898438 109.667969 -56.5625 111.019531 -52.949219 L 99.625 -48.675781 L 110.511719 -54.121094 C 112.234375 -50.675781 113.09375 -46.914062 113.09375 -42.835938 C 113.09375 -35.386719 109.539062 -29.152344 102.425781 -24.128906 L 102.1875 -23.960938 L 101.941406 -23.804688 C 95.1875 -19.507812 85.328125 -17.359375 72.367188 -17.359375 C 62.039062 -17.359375 52.402344 -19.019531 43.464844 -22.339844 L 47.703125 -33.75 L 43.753906 -22.234375 C 34.597656 -25.375 27.019531 -29.671875 21.019531 -35.128906 Z M 21.019531 -35.128906 "/></g></g></g><g fill="#ffffff" fill-opacity="1"><g transform="translate(649.683453, 296.663146)"><g><path d="M 97.679688 -251.335938 C 113.605469 -251.335938 127.996094 -247.804688 140.855469 -240.746094 L 134.996094 -230.078125 L 140.613281 -240.875 C 147.039062 -237.535156 152.941406 -233.300781 158.316406 -228.183594 C 163.542969 -223.207031 168.25 -217.515625 172.441406 -211.101562 C 180.152344 -199.054688 186.007812 -184.570312 190 -167.648438 C 193.679688 -151.554688 195.519531 -133.425781 195.519531 -113.253906 C 195.519531 -71.421875 187.699219 -38.777344 172.058594 -15.316406 C 163.339844 -2.234375 152.652344 7.625 140.003906 14.265625 C 127.417969 20.875 113.089844 24.179688 97.027344 24.179688 C 80.832031 24.179688 66.457031 20.835938 53.90625 14.148438 C 41.273438 7.421875 30.707031 -2.570312 22.207031 -15.820312 C 14.296875 -28.28125 8.457031 -42.765625 4.683594 -59.269531 C 1.019531 -75.304688 -0.8125 -93.515625 -0.8125 -113.902344 C -0.8125 -155.734375 7.007812 -188.378906 22.648438 -211.84375 C 31.367188 -224.921875 42.050781 -234.78125 54.703125 -241.421875 C 67.289062 -248.03125 81.613281 -251.335938 97.679688 -251.335938 Z M 97.679688 -226.992188 C 85.617188 -226.992188 75.0625 -224.617188 66.015625 -219.871094 C 57.03125 -215.152344 49.328125 -207.976562 42.902344 -198.339844 C 29.988281 -178.964844 23.527344 -150.820312 23.527344 -113.902344 C 23.527344 -95.347656 25.15625 -78.945312 28.414062 -64.695312 C 31.566406 -50.910156 36.324219 -39 42.695312 -28.964844 C 48.90625 -19.28125 56.457031 -12.070312 65.351562 -7.335938 C 74.324219 -2.554688 84.882812 -0.164062 97.027344 -0.164062 C 109.089844 -0.164062 119.644531 -2.539062 128.691406 -7.289062 C 137.675781 -12.003906 145.378906 -19.183594 151.804688 -28.816406 C 164.71875 -48.191406 171.175781 -76.335938 171.175781 -113.253906 C 171.175781 -131.59375 169.554688 -147.859375 166.3125 -162.054688 C 162.949219 -176.285156 158.203125 -188.195312 152.070312 -197.78125 C 148.90625 -202.621094 145.390625 -206.878906 141.53125 -210.554688 C 137.820312 -214.089844 133.769531 -216.996094 129.382812 -219.28125 L 129.257812 -219.34375 L 129.140625 -219.410156 C 119.929688 -224.464844 109.441406 -226.992188 97.679688 -226.992188 Z M 97.351562 -184.15625 L 95.242188 -184.15625 C 95.175781 -184.15625 95.125 -184.15625 95.082031 -184.152344 C 95.089844 -184.152344 95.105469 -184.15625 95.136719 -184.160156 C 94.394531 -184.039062 93.597656 -183.914062 92.746094 -183.792969 L 92.765625 -183.808594 C 91.636719 -183.433594 90.554688 -183.140625 89.519531 -182.933594 C 90.042969 -183.039062 90.464844 -183.171875 90.789062 -183.332031 C 89.839844 -182.859375 88.9375 -182.449219 88.082031 -182.109375 C 88.257812 -182.179688 88.410156 -182.25 88.539062 -182.316406 L 88.527344 -182.308594 L 87.898438 -181.886719 L 87.21875 -181.550781 C 86.234375 -181.054688 85.234375 -180.300781 84.21875 -179.285156 C 83.039062 -178.105469 81.851562 -176.476562 80.660156 -174.390625 C 77.660156 -169.269531 75.316406 -162.113281 73.628906 -152.917969 C 71.597656 -142.761719 70.582031 -129.867188 70.582031 -114.226562 C 70.582031 -87.472656 73.894531 -67.847656 80.523438 -55.351562 C 82.925781 -50.855469 85.601562 -47.601562 88.554688 -45.585938 C 91.085938 -43.863281 94.015625 -43 97.351562 -43 C 99.339844 -43 101.074219 -43.191406 102.554688 -43.578125 C 104.082031 -43.976562 105.597656 -44.585938 107.101562 -45.40625 C 109.679688 -46.757812 112 -49.226562 114.070312 -52.8125 L 114.214844 -53.066406 L 114.375 -53.3125 C 115.769531 -55.484375 117.011719 -58.195312 118.09375 -61.449219 C 119.292969 -65.039062 120.269531 -69.210938 121.03125 -73.964844 L 121.070312 -74.195312 L 121.113281 -74.429688 C 123.121094 -84.457031 124.125 -97.292969 124.125 -112.929688 C 124.125 -139.683594 120.808594 -159.308594 114.183594 -171.804688 C 111.78125 -176.300781 109.105469 -179.554688 106.152344 -181.570312 C 103.621094 -183.296875 100.691406 -184.15625 97.351562 -184.15625 Z M 97.351562 -208.5 C 105.699219 -208.5 113.203125 -206.226562 119.871094 -201.675781 C 126.113281 -197.417969 131.386719 -191.261719 135.6875 -183.210938 C 144.207031 -167.148438 148.464844 -143.722656 148.464844 -112.929688 C 148.464844 -95.683594 147.304688 -81.257812 144.984375 -69.65625 L 133.050781 -72.042969 L 145.066406 -70.117188 C 144.097656 -64.054688 142.804688 -58.601562 141.1875 -53.75 C 139.460938 -48.566406 137.347656 -44.03125 134.851562 -40.148438 L 124.613281 -46.730469 L 135.15625 -40.648438 C 130.734375 -32.984375 125.265625 -27.445312 118.757812 -24.039062 C 115.503906 -22.261719 112.152344 -20.925781 108.699219 -20.023438 C 105.207031 -19.113281 101.421875 -18.65625 97.351562 -18.65625 C 89.007812 -18.65625 81.5 -20.933594 74.835938 -25.480469 C 68.59375 -29.738281 63.320312 -35.894531 59.015625 -43.949219 C 50.5 -60.007812 46.242188 -83.4375 46.242188 -114.226562 C 46.242188 -131.472656 47.390625 -145.835938 49.6875 -157.316406 C 51.890625 -169.320312 55.171875 -179.039062 59.527344 -186.464844 C 61.796875 -190.4375 64.289062 -193.78125 67.003906 -196.5 C 69.882812 -199.375 72.992188 -201.652344 76.332031 -203.320312 L 81.777344 -192.433594 L 75.027344 -202.5625 C 76.378906 -203.464844 77.714844 -204.179688 79.042969 -204.710938 C 79.269531 -204.800781 79.554688 -204.933594 79.902344 -205.105469 C 81.523438 -205.917969 83.136719 -206.480469 84.746094 -206.804688 C 84.789062 -206.8125 84.898438 -206.84375 85.066406 -206.902344 C 86.410156 -207.351562 87.824219 -207.679688 89.304688 -207.890625 C 89.96875 -207.984375 90.578125 -208.078125 91.132812 -208.171875 C 92.445312 -208.390625 93.816406 -208.5 95.242188 -208.5 Z M 97.351562 -208.5 "/></g></g></g><g fill="#ffffff" fill-opacity="1"><g transform="translate(844.369408, 296.663146)"><g><path d="M 53.699219 -170.539062 C 55.839844 -172.675781 58.003906 -174.566406 60.195312 -176.210938 C 62.371094 -177.839844 64.671875 -179.332031 67.105469 -180.683594 L 73.015625 -170.042969 L 66.3125 -180.203125 C 79.160156 -188.683594 94.050781 -192.921875 110.984375 -192.921875 C 123.175781 -192.921875 134.117188 -190.945312 143.8125 -186.992188 C 153.894531 -182.878906 162.394531 -176.699219 169.308594 -168.453125 C 181.808594 -153.152344 188.054688 -133.671875 188.054688 -110.007812 L 188.054688 20.285156 L 118.28125 20.285156 L 118.28125 -106.765625 C 118.28125 -109.722656 118.074219 -112.363281 117.660156 -114.683594 C 117.269531 -116.863281 116.753906 -118.746094 116.105469 -120.328125 C 115.644531 -121.457031 115.101562 -122.375 114.480469 -123.085938 L 114.175781 -123.433594 L 113.902344 -123.800781 C 113.324219 -124.566406 112.710938 -125.191406 112.058594 -125.667969 C 111.722656 -125.917969 111.246094 -126.117188 110.625 -126.273438 C 109.433594 -126.570312 107.929688 -126.71875 106.113281 -126.71875 C 103.742188 -126.71875 101.320312 -126.238281 98.84375 -125.277344 C 95.640625 -124.09375 92.542969 -122.421875 89.550781 -120.261719 L 82.425781 -130.128906 L 89.898438 -120.523438 C 86.5 -117.878906 83.285156 -114.949219 80.253906 -111.726562 L 71.390625 -120.070312 L 81.128906 -112.765625 C 79.71875 -110.886719 78.199219 -108.957031 76.570312 -106.976562 C 75.390625 -105.546875 74.402344 -104.191406 73.601562 -102.910156 L 63.28125 -109.359375 L 75.449219 -109.359375 L 75.449219 20.285156 L 5.675781 20.285156 L 5.675781 -189.03125 L 74.476562 -189.03125 L 74.476562 -161.929688 L 62.304688 -161.929688 Z M 50.136719 -132.546875 L 50.136719 -176.859375 L 62.304688 -176.859375 L 62.304688 -164.6875 L 17.847656 -164.6875 L 17.847656 -176.859375 L 30.019531 -176.859375 L 30.019531 8.113281 L 17.847656 8.113281 L 17.847656 -4.058594 L 63.28125 -4.058594 L 63.28125 8.113281 L 51.109375 8.113281 L 51.109375 -112.851562 L 52.957031 -115.8125 C 54.320312 -117.992188 55.925781 -120.203125 57.777344 -122.453125 C 59.175781 -124.148438 60.46875 -125.789062 61.65625 -127.371094 L 62.0625 -127.914062 L 62.53125 -128.410156 C 66.421875 -132.546875 70.5625 -136.320312 74.953125 -139.734375 L 75.125 -139.867188 L 75.300781 -139.996094 C 80.09375 -143.460938 85.003906 -146.113281 90.019531 -147.960938 C 95.335938 -150.027344 100.699219 -151.0625 106.113281 -151.0625 C 109.925781 -151.0625 113.398438 -150.671875 116.53125 -149.886719 C 120.238281 -148.960938 123.546875 -147.429688 126.457031 -145.296875 C 129.046875 -143.394531 131.355469 -141.097656 133.375 -138.40625 L 123.640625 -131.101562 L 132.796875 -139.117188 C 135.203125 -136.367188 137.148438 -133.175781 138.636719 -129.546875 C 139.933594 -126.367188 140.929688 -122.839844 141.625 -118.964844 C 142.289062 -115.226562 142.625 -111.160156 142.625 -106.765625 L 142.625 8.113281 L 130.453125 8.113281 L 130.453125 -4.058594 L 175.886719 -4.058594 L 175.886719 8.113281 L 163.714844 8.113281 L 163.714844 -110.007812 C 163.714844 -127.886719 159.363281 -142.152344 150.660156 -152.8125 C 146.324219 -157.976562 140.976562 -161.859375 134.617188 -164.453125 C 127.871094 -167.207031 119.992188 -168.582031 110.984375 -168.582031 C 98.925781 -168.582031 88.503906 -165.683594 79.71875 -159.886719 L 79.332031 -159.628906 L 78.925781 -159.40625 C 77.464844 -158.589844 76.089844 -157.703125 74.800781 -156.738281 C 73.53125 -155.785156 72.234375 -154.648438 70.914062 -153.324219 Z M 50.136719 -132.546875 "/></g></g></g><g clip-path="url(#280e69fd28)"><g fill="#ffffff" fill-opacity="1"><g transform="translate(1036.45958, 296.663146)"><g><path d="M 92.808594 -192.921875 C 98.933594 -192.921875 104.78125 -192.429688 110.355469 -191.4375 C 116.214844 -190.394531 121.765625 -188.695312 127.011719 -186.335938 C 130.238281 -184.953125 133.417969 -183.417969 136.546875 -181.734375 L 130.777344 -171.015625 L 118.605469 -171.015625 L 118.605469 -189.03125 L 185.785156 -189.03125 L 185.785156 -3.894531 C 185.785156 12.496094 183.472656 26.890625 178.851562 39.296875 C 176.640625 45.445312 173.839844 51.214844 170.453125 56.609375 C 166.949219 62.1875 162.847656 67.132812 158.148438 71.441406 C 153.609375 75.601562 148.632812 79.257812 143.222656 82.402344 C 137.851562 85.523438 132.171875 88.082031 126.191406 90.078125 L 125.96875 90.152344 L 125.75 90.214844 C 120.035156 91.882812 114.039062 93.1875 107.769531 94.136719 C 101.433594 95.09375 94.824219 95.570312 87.941406 95.570312 C 76.085938 95.570312 64.675781 94.140625 53.71875 91.28125 C 49.992188 90.351562 46.394531 89.289062 42.925781 88.089844 C 39.226562 86.816406 35.652344 85.285156 32.203125 83.496094 C 29.019531 81.84375 25.894531 80.074219 22.828125 78.1875 L 22.710938 78.117188 L 8.667969 69.03125 L 14.984375 53.242188 L 25.785156 27.707031 L 36.253906 3.546875 L 57.191406 19.652344 L 57.308594 19.746094 C 60.878906 22.636719 65.109375 25.042969 70 26.964844 C 74.628906 28.78125 80.609375 29.691406 87.941406 29.691406 C 89.894531 29.691406 91.6875 29.605469 93.320312 29.433594 C 95.132812 29.242188 96.890625 29.003906 98.597656 28.71875 C 99.917969 28.5 101.085938 28.222656 102.105469 27.882812 C 103.179688 27.523438 104.214844 27.09375 105.214844 26.59375 C 106.074219 26.164062 106.863281 25.683594 107.574219 25.148438 C 109.050781 24.039062 110.535156 22.988281 112.019531 22 L 118.769531 32.125 L 110.164062 23.519531 C 112.074219 21.613281 113.644531 18.847656 114.875 15.226562 C 116.28125 11.089844 116.984375 5.6875 116.984375 -0.972656 L 116.984375 -3.894531 L 129.15625 -3.894531 L 135.417969 6.542969 L 128.925781 10.4375 C 117.636719 17 104.515625 20.285156 89.566406 20.285156 C 85.613281 20.285156 81.609375 20.039062 77.554688 19.546875 C 73.332031 19.035156 69.226562 18.199219 65.242188 17.042969 C 61.589844 15.984375 57.890625 14.75 54.136719 13.34375 L 53.847656 13.234375 L 53.558594 13.109375 C 42.140625 8.144531 31.980469 1.085938 23.078125 -8.0625 C 18.542969 -12.847656 14.546875 -18.023438 11.082031 -23.585938 C 7.71875 -28.996094 4.722656 -34.804688 2.097656 -41.015625 L 2.042969 -41.140625 L 1.988281 -41.273438 C -3.125 -54.179688 -5.679688 -68.761719 -5.679688 -85.023438 C -5.679688 -100.199219 -3.125 -114.242188 1.988281 -127.148438 C 3.640625 -131.390625 5.480469 -135.488281 7.515625 -139.433594 C 9.5625 -143.410156 11.796875 -147.210938 14.210938 -150.835938 C 16.730469 -154.613281 19.503906 -158.140625 22.535156 -161.425781 C 31.378906 -171.25 41.753906 -178.894531 53.664062 -184.351562 C 65.835938 -190.066406 78.886719 -192.921875 92.808594 -192.921875 Z M 92.808594 -168.582031 C 82.503906 -168.582031 72.835938 -166.460938 63.808594 -162.222656 C 54.949219 -158.164062 47.15625 -152.394531 40.421875 -144.914062 C 38.257812 -142.570312 36.273438 -140.042969 34.464844 -137.332031 C 32.554688 -134.464844 30.785156 -131.449219 29.15625 -128.285156 C 27.511719 -125.09375 26 -121.726562 24.621094 -118.183594 C 20.648438 -108.15625 18.660156 -97.101562 18.660156 -85.023438 C 18.660156 -71.859375 20.648438 -60.265625 24.621094 -50.238281 L 13.304688 -45.757812 L 24.515625 -50.5 C 26.644531 -45.457031 29.058594 -40.773438 31.75 -36.445312 C 34.347656 -32.277344 37.269531 -28.472656 40.527344 -25.039062 C 47.199219 -18.179688 54.777344 -12.902344 63.265625 -9.214844 L 58.410156 1.945312 L 62.683594 -9.449219 C 65.855469 -8.257812 68.972656 -7.222656 72.027344 -6.335938 C 74.75 -5.542969 77.566406 -4.972656 80.484375 -4.617188 C 83.566406 -4.246094 86.59375 -4.058594 89.566406 -4.058594 C 100.140625 -4.058594 109.085938 -6.183594 116.402344 -10.4375 L 141.328125 -25.390625 L 141.328125 -0.972656 C 141.328125 8.371094 140.191406 16.386719 137.921875 23.0625 C 135.472656 30.261719 131.957031 36.152344 127.378906 40.734375 L 126.523438 41.585938 L 125.523438 42.253906 C 124.410156 42.992188 123.296875 43.785156 122.179688 44.621094 C 120.296875 46.035156 118.269531 47.28125 116.101562 48.367188 C 114.070312 49.382812 111.972656 50.25 109.800781 50.972656 C 107.574219 51.714844 105.175781 52.300781 102.597656 52.730469 C 100.410156 53.097656 98.167969 53.398438 95.867188 53.640625 C 93.390625 53.902344 90.75 54.03125 87.941406 54.03125 C 77.535156 54.03125 68.589844 52.5625 61.101562 49.621094 C 53.878906 46.78125 47.507812 43.132812 41.992188 38.664062 L 49.648438 29.207031 L 42.230469 38.851562 L 33.792969 32.363281 L 41.214844 22.714844 L 52.378906 27.554688 L 48.203125 37.195312 L 37.585938 62.28125 L 34.988281 68.773438 L 23.6875 64.253906 L 30.300781 54.035156 L 35.816406 57.605469 L 29.207031 67.824219 L 35.585938 57.457031 C 38.144531 59.03125 40.75 60.507812 43.40625 61.886719 C 45.800781 63.125 48.285156 64.191406 50.859375 65.078125 C 53.664062 66.042969 56.664062 66.929688 59.863281 67.726562 C 68.804688 70.0625 78.167969 71.226562 87.941406 71.226562 C 93.609375 71.226562 99.003906 70.839844 104.136719 70.066406 C 109.332031 69.28125 114.261719 68.210938 118.933594 66.847656 L 122.339844 78.53125 L 118.492188 66.984375 C 122.894531 65.519531 127.058594 63.640625 130.988281 61.355469 C 134.882812 59.09375 138.453125 56.472656 141.699219 53.496094 C 144.785156 50.667969 147.5 47.390625 149.839844 43.664062 C 152.292969 39.753906 154.359375 35.464844 156.042969 30.796875 C 159.640625 21.136719 161.441406 9.570312 161.441406 -3.894531 L 161.441406 -176.859375 L 173.613281 -176.859375 L 173.613281 -164.6875 L 130.777344 -164.6875 L 130.777344 -176.859375 L 142.949219 -176.859375 L 142.949219 -150.640625 L 125.007812 -160.300781 C 122.511719 -161.644531 119.851562 -162.921875 117.023438 -164.136719 C 113.613281 -165.671875 109.96875 -166.78125 106.09375 -167.472656 C 101.929688 -168.210938 97.503906 -168.582031 92.808594 -168.582031 Z M 96.054688 -46.246094 C 101.09375 -46.246094 105.613281 -47.355469 109.613281 -49.582031 C 113.46875 -51.757812 116.703125 -54.238281 119.320312 -57.019531 L 128.183594 -48.675781 L 116.011719 -48.675781 L 116.011719 -129.15625 L 128.183594 -129.15625 L 121.570312 -118.9375 C 118.46875 -120.941406 114.964844 -122.78125 111.054688 -124.457031 C 107.136719 -126.183594 102.027344 -127.042969 95.730469 -127.042969 C 93.722656 -127.042969 91.757812 -126.851562 89.84375 -126.46875 C 88.054688 -126.113281 86.394531 -125.585938 84.867188 -124.890625 C 81.121094 -123.171875 77.730469 -120.71875 74.699219 -117.527344 L 65.875 -125.910156 L 74.921875 -117.769531 C 71.996094 -114.515625 69.5 -110.3125 67.441406 -105.164062 L 56.140625 -109.683594 L 67.609375 -105.613281 C 65.699219 -100.222656 64.742188 -93.902344 64.742188 -86.644531 C 64.742188 -83.222656 65.007812 -79.960938 65.539062 -76.855469 C 66.085938 -73.679688 66.800781 -70.761719 67.6875 -68.101562 L 56.140625 -64.253906 L 67.441406 -68.773438 C 69.496094 -63.632812 72.089844 -59.332031 75.226562 -55.867188 L 75.472656 -55.59375 L 75.703125 -55.304688 C 76.15625 -54.742188 76.675781 -54.195312 77.261719 -53.667969 C 78.03125 -52.976562 78.839844 -52.320312 79.6875 -51.707031 C 80.671875 -50.988281 81.65625 -50.316406 82.632812 -49.695312 C 82.980469 -49.476562 83.328125 -49.304688 83.679688 -49.191406 L 84.5 -48.917969 L 85.273438 -48.53125 C 86.898438 -47.71875 88.527344 -47.148438 90.167969 -46.820312 C 92.082031 -46.4375 94.046875 -46.246094 96.054688 -46.246094 Z M 96.054688 -21.902344 C 92.4375 -21.902344 88.886719 -22.25 85.394531 -22.949219 C 81.625 -23.703125 77.953125 -24.972656 74.386719 -26.757812 L 79.828125 -37.644531 L 75.980469 -26.097656 C 73.734375 -26.84375 71.597656 -27.867188 69.5625 -29.160156 C 68.160156 -30.050781 66.761719 -31.003906 65.371094 -32.019531 C 63.839844 -33.132812 62.375 -34.316406 60.980469 -35.574219 C 59.402344 -36.992188 57.976562 -38.5 56.695312 -40.101562 L 66.199219 -47.703125 L 57.175781 -39.539062 C 52.089844 -45.160156 47.976562 -51.890625 44.839844 -59.734375 L 44.707031 -60.066406 L 44.59375 -60.40625 C 43.316406 -64.234375 42.300781 -68.347656 41.546875 -72.742188 C 40.78125 -77.210938 40.398438 -81.84375 40.398438 -86.644531 C 40.398438 -96.695312 41.824219 -105.730469 44.671875 -113.753906 L 44.75 -113.980469 L 44.839844 -114.203125 C 47.972656 -122.035156 51.96875 -128.652344 56.828125 -134.050781 L 56.9375 -134.175781 L 57.050781 -134.292969 C 62.242188 -139.753906 68.15625 -144.007812 74.792969 -147.050781 C 78.023438 -148.519531 81.449219 -149.613281 85.070312 -150.339844 C 88.5625 -151.035156 92.113281 -151.386719 95.730469 -151.386719 C 105.441406 -151.386719 113.746094 -149.867188 120.644531 -146.832031 C 125.820312 -144.613281 130.539062 -142.128906 134.792969 -139.375 L 140.351562 -135.777344 L 140.351562 -43.851562 L 137.042969 -40.335938 C 132.738281 -35.761719 127.535156 -31.75 121.4375 -28.300781 C 113.757812 -24.035156 105.296875 -21.902344 96.054688 -21.902344 Z M 96.054688 -21.902344 "/></g></g></g></g><g fill="#2287ff" fill-opacity="1"><g transform="translate(0.730293, 296.663146)"><g><path d="M 62.3125 -162.25 C 64.039062 -163.769531 65.710938 -165.175781 67.328125 -166.46875 C 68.953125 -167.769531 70.738281 -168.960938 72.6875 -170.046875 C 75.28125 -171.773438 77.984375 -173.34375 80.796875 -174.75 C 83.609375 -176.15625 86.582031 -177.289062 89.71875 -178.15625 C 92.863281 -179.019531 96.003906 -179.664062 99.140625 -180.09375 C 102.273438 -180.53125 105.570312 -180.75 109.03125 -180.75 C 124.175781 -180.75 136.726562 -176.960938 146.6875 -169.390625 C 152.738281 -164.847656 157.710938 -159.222656 161.609375 -152.515625 C 167.015625 -158.578125 172.75 -163.988281 178.8125 -168.75 C 180.96875 -170.257812 183.234375 -171.660156 185.609375 -172.953125 C 187.992188 -174.253906 190.484375 -175.390625 193.078125 -176.359375 C 195.679688 -177.335938 198.332031 -178.148438 201.03125 -178.796875 C 203.738281 -179.453125 206.5 -179.941406 209.3125 -180.265625 C 212.125 -180.585938 215.046875 -180.75 218.078125 -180.75 C 219.367188 -180.75 220.609375 -180.75 221.796875 -180.75 C 222.992188 -180.75 224.1875 -180.695312 225.375 -180.59375 C 226.5625 -180.488281 227.75 -180.328125 228.9375 -180.109375 C 230.132812 -179.890625 231.269531 -179.671875 232.34375 -179.453125 C 233.425781 -179.234375 234.507812 -179.015625 235.59375 -178.796875 C 236.675781 -178.585938 237.757812 -178.320312 238.84375 -178 C 239.925781 -177.675781 241.007812 -177.296875 242.09375 -176.859375 C 243.175781 -176.429688 244.253906 -176 245.328125 -175.5625 C 247.273438 -174.695312 249.164062 -173.722656 251 -172.640625 C 252.84375 -171.554688 254.578125 -170.363281 256.203125 -169.0625 C 257.828125 -167.769531 259.394531 -166.421875 260.90625 -165.015625 C 262.425781 -163.609375 263.832031 -162.039062 265.125 -160.3125 C 270.53125 -154.039062 274.425781 -146.578125 276.8125 -137.921875 C 279.40625 -129.484375 280.703125 -120.179688 280.703125 -110.015625 L 280.703125 8.109375 L 235.28125 8.109375 L 235.28125 -107.734375 C 235.28125 -117.691406 233.113281 -125.585938 228.78125 -131.421875 C 224.882812 -136.398438 219.582031 -138.890625 212.875 -138.890625 C 208.988281 -138.890625 205.3125 -138.132812 201.84375 -136.625 C 197.945312 -134.894531 194.269531 -132.625 190.8125 -129.8125 C 187.132812 -126.78125 183.566406 -123.316406 180.109375 -119.421875 C 178.804688 -117.691406 177.394531 -115.851562 175.875 -113.90625 C 174.363281 -111.957031 173.070312 -110.117188 172 -108.390625 L 172 8.109375 L 126.5625 8.109375 L 126.5625 -107.734375 C 126.5625 -117.691406 124.398438 -125.585938 120.078125 -131.421875 C 116.179688 -136.398438 110.878906 -138.890625 104.171875 -138.890625 C 100.492188 -138.890625 96.816406 -138.132812 93.140625 -136.625 C 91.410156 -135.96875 89.570312 -135.097656 87.625 -134.015625 C 85.675781 -132.941406 83.835938 -131.644531 82.109375 -130.125 C 81.453125 -129.695312 80.800781 -129.210938 80.15625 -128.671875 C 79.507812 -128.128906 78.914062 -127.585938 78.375 -127.046875 C 77.832031 -126.503906 77.234375 -125.960938 76.578125 -125.421875 C 75.929688 -124.878906 75.335938 -124.335938 74.796875 -123.796875 C 74.253906 -123.253906 73.710938 -122.660156 73.171875 -122.015625 C 72.628906 -121.367188 72.035156 -120.722656 71.390625 -120.078125 C 70.097656 -118.335938 68.691406 -116.546875 67.171875 -114.703125 C 65.660156 -112.867188 64.363281 -111.085938 63.28125 -109.359375 L 63.28125 8.109375 L 17.84375 8.109375 L 17.84375 -176.859375 L 62.3125 -176.859375 Z M 62.3125 -162.25 "/></g></g></g><g fill="#2287ff" fill-opacity="1"><g transform="translate(297.626328, 296.663146)"><g><path d="M 6.484375 -83.40625 C 6.484375 -96.8125 8.539062 -109.46875 12.65625 -121.375 C 16.976562 -133.269531 23.035156 -143.546875 30.828125 -152.203125 C 38.617188 -161.066406 47.972656 -168.039062 58.890625 -173.125 C 69.816406 -178.207031 81.664062 -180.75 94.4375 -180.75 C 105.25 -180.75 115.09375 -178.910156 123.96875 -175.234375 C 127.207031 -173.722656 130.34375 -172.101562 133.375 -170.375 L 133.375 -176.859375 L 176.21875 -176.859375 L 176.21875 -40.890625 C 176.21875 -35.691406 176.972656 -32.660156 178.484375 -31.796875 C 181.078125 -30.066406 184 -29.203125 187.25 -29.203125 L 197.953125 -29.203125 L 195.03125 -18.828125 L 188.875 3.890625 L 187.25 9.734375 L 181.078125 9.734375 C 162.253906 9.734375 148.953125 3.566406 141.171875 -8.765625 C 140.734375 -8.328125 140.40625 -8 140.1875 -7.78125 C 138.238281 -5.84375 136.179688 -4.003906 134.015625 -2.265625 C 131.859375 -0.535156 129.585938 0.972656 127.203125 2.265625 C 122.234375 5.296875 116.664062 7.675781 110.5 9.40625 C 104.332031 11.132812 97.679688 12 90.546875 12 C 84.703125 12 79.019531 11.40625 73.5 10.21875 C 67.988281 9.03125 62.632812 7.351562 57.4375 5.1875 C 47.269531 0.644531 38.398438 -5.84375 30.828125 -14.28125 C 23.253906 -22.71875 17.304688 -32.773438 12.984375 -44.453125 C 8.648438 -55.921875 6.484375 -68.90625 6.484375 -83.40625 Z M 97.03125 -30.1875 C 103.957031 -30.394531 110.445312 -32.015625 116.5 -35.046875 C 118.445312 -36.128906 120.285156 -37.265625 122.015625 -38.453125 C 123.742188 -39.640625 125.3125 -40.882812 126.71875 -42.1875 C 128.125 -43.488281 129.476562 -44.785156 130.78125 -46.078125 L 130.78125 -129.484375 C 126.457031 -132.078125 121.804688 -134.238281 116.828125 -135.96875 C 110.765625 -138.132812 104.273438 -139.21875 97.359375 -139.21875 C 90.867188 -139.21875 84.914062 -137.972656 79.5 -135.484375 C 74.09375 -132.992188 69.441406 -129.367188 65.546875 -124.609375 C 61.441406 -120.066406 58.304688 -114.335938 56.140625 -107.421875 C 53.765625 -100.492188 52.578125 -92.8125 52.578125 -84.375 C 52.578125 -76.15625 53.765625 -68.691406 56.140625 -61.984375 C 57.222656 -58.523438 58.570312 -55.390625 60.1875 -52.578125 C 61.8125 -49.765625 63.597656 -47.164062 65.546875 -44.78125 C 67.492188 -42.40625 69.65625 -40.296875 72.03125 -38.453125 C 74.414062 -36.617188 76.90625 -35.160156 79.5 -34.078125 C 82.101562 -32.773438 84.863281 -31.800781 87.78125 -31.15625 C 90.695312 -30.507812 93.78125 -30.1875 97.03125 -30.1875 Z M 97.03125 -30.1875 "/></g></g></g><g fill="#2287ff" fill-opacity="1"><g transform="translate(497.828386, 296.663146)"><g><path d="M 29.203125 -44.140625 C 33.960938 -39.804688 40.128906 -36.34375 47.703125 -33.75 C 55.273438 -30.9375 63.492188 -29.53125 72.359375 -29.53125 C 82.960938 -29.53125 90.644531 -31.046875 95.40625 -34.078125 C 99.082031 -36.671875 100.921875 -39.59375 100.921875 -42.84375 C 100.921875 -45 100.488281 -46.941406 99.625 -48.671875 C 98.976562 -50.410156 97.679688 -52.144531 95.734375 -53.875 C 93.140625 -56.03125 89.460938 -58.191406 84.703125 -60.359375 C 83.398438 -60.796875 81.988281 -61.335938 80.46875 -61.984375 C 78.957031 -62.628906 77.335938 -63.273438 75.609375 -63.921875 C 73.878906 -64.578125 72.09375 -65.28125 70.25 -66.03125 C 68.414062 -66.789062 66.414062 -67.492188 64.25 -68.140625 C 58.625 -70.085938 53.484375 -72.144531 48.828125 -74.3125 C 44.179688 -76.476562 39.910156 -78.800781 36.015625 -81.28125 C 32.128906 -83.769531 28.671875 -86.421875 25.640625 -89.234375 C 20.878906 -93.785156 17.304688 -99.195312 14.921875 -105.46875 C 12.546875 -111.738281 11.359375 -118.660156 11.359375 -126.234375 C 11.359375 -134.023438 13.085938 -141.378906 16.546875 -148.296875 C 17.847656 -150.460938 19.253906 -152.570312 20.765625 -154.625 C 22.285156 -156.6875 23.910156 -158.632812 25.640625 -160.46875 C 27.367188 -162.3125 29.316406 -163.988281 31.484375 -165.5 C 37.753906 -170.476562 45.320312 -174.265625 54.1875 -176.859375 C 62.84375 -179.453125 72.6875 -180.75 83.71875 -180.75 C 95.40625 -180.75 105.789062 -179.5625 114.875 -177.1875 C 119.414062 -175.882812 123.6875 -174.472656 127.6875 -172.953125 C 131.695312 -171.441406 135.429688 -169.71875 138.890625 -167.78125 L 145.390625 -164.53125 L 143.109375 -158.046875 L 135 -134.03125 L 131.75 -124.609375 L 122.984375 -129.484375 C 117.796875 -132.722656 111.847656 -135.316406 105.140625 -137.265625 C 98.222656 -139.210938 90.648438 -140.1875 82.421875 -140.1875 C 79.179688 -140.1875 76.207031 -139.96875 73.5 -139.53125 C 70.800781 -139.101562 68.476562 -138.507812 66.53125 -137.75 C 64.582031 -137 62.957031 -136.082031 61.65625 -135 C 59.488281 -133.488281 58.023438 -132.03125 57.265625 -130.625 C 56.515625 -129.21875 56.140625 -127.863281 56.140625 -126.5625 C 56.140625 -125.050781 56.359375 -123.753906 56.796875 -122.671875 C 57.222656 -121.804688 58.191406 -120.832031 59.703125 -119.75 C 61.867188 -118.226562 64.789062 -116.601562 68.46875 -114.875 C 70.632812 -114.007812 72.960938 -113.085938 75.453125 -112.109375 C 77.941406 -111.140625 80.804688 -110.113281 84.046875 -109.03125 C 86.859375 -107.957031 89.507812 -106.929688 92 -105.953125 C 94.488281 -104.984375 96.921875 -104.007812 99.296875 -103.03125 C 101.679688 -102.0625 103.898438 -101.085938 105.953125 -100.109375 C 108.003906 -99.140625 110.003906 -98.222656 111.953125 -97.359375 C 120.179688 -93.023438 126.890625 -88.375 132.078125 -83.40625 C 137.484375 -77.988281 141.269531 -72.035156 143.4375 -65.546875 C 145.8125 -59.273438 147 -52.460938 147 -45.109375 C 147 -36.234375 145.054688 -28.117188 141.171875 -20.765625 C 137.273438 -13.628906 131.972656 -7.570312 125.265625 -2.59375 C 121.804688 -0.21875 118.070312 1.882812 114.0625 3.71875 C 110.0625 5.5625 105.789062 7.132812 101.25 8.4375 C 92.164062 10.8125 82.210938 12 71.390625 12 C 57.546875 12 45.109375 10.269531 34.078125 6.8125 C 23.046875 3.132812 13.847656 -1.515625 6.484375 -7.140625 L 0.96875 -11.359375 L 4.21875 -17.203125 L 16.546875 -41.53125 L 21.09375 -50.953125 Z M 29.203125 -44.140625 "/></g></g></g><g fill="#2287ff" fill-opacity="1"><g transform="translate(649.683453, 296.663146)"><g><path d="M 97.671875 -239.171875 C 111.523438 -239.171875 123.96875 -236.140625 135 -230.078125 C 140.40625 -227.265625 145.378906 -223.691406 149.921875 -219.359375 C 154.460938 -215.035156 158.570312 -210.0625 162.25 -204.4375 C 169.175781 -193.625 174.476562 -180.429688 178.15625 -164.859375 C 181.613281 -149.710938 183.34375 -132.507812 183.34375 -113.25 C 183.34375 -73.875 176.207031 -43.476562 161.9375 -22.0625 C 146.789062 0.644531 125.15625 12 97.03125 12 C 68.6875 12 47.160156 0.535156 32.453125 -22.390625 C 25.316406 -33.640625 20.015625 -46.835938 16.546875 -61.984375 C 13.085938 -77.128906 11.359375 -94.4375 11.359375 -113.90625 C 11.359375 -153.28125 18.5 -183.675781 32.78125 -205.09375 C 47.914062 -227.8125 69.546875 -239.171875 97.671875 -239.171875 Z M 97.359375 -196.328125 C 96.703125 -196.328125 95.992188 -196.328125 95.234375 -196.328125 C 94.484375 -196.328125 93.78125 -196.269531 93.125 -196.15625 C 92.476562 -196.050781 91.773438 -195.945312 91.015625 -195.84375 C 90.265625 -195.738281 89.5625 -195.578125 88.90625 -195.359375 C 88.257812 -195.140625 87.664062 -194.972656 87.125 -194.859375 C 86.59375 -194.753906 86 -194.539062 85.34375 -194.21875 C 84.695312 -193.894531 84.101562 -193.625 83.5625 -193.40625 C 83.019531 -193.195312 82.425781 -192.875 81.78125 -192.4375 C 79.613281 -191.351562 77.554688 -189.835938 75.609375 -187.890625 C 73.660156 -185.941406 71.820312 -183.457031 70.09375 -180.4375 C 66.414062 -174.15625 63.601562 -165.71875 61.65625 -155.125 C 59.488281 -144.300781 58.40625 -130.671875 58.40625 -114.234375 C 58.40625 -85.453125 62.191406 -63.925781 69.765625 -49.65625 C 76.472656 -37.101562 85.671875 -30.828125 97.359375 -30.828125 C 100.378906 -30.828125 103.132812 -31.148438 105.625 -31.796875 C 108.113281 -32.453125 110.550781 -33.425781 112.9375 -34.71875 C 117.476562 -37.101562 121.367188 -41.109375 124.609375 -46.734375 C 126.554688 -49.765625 128.234375 -53.382812 129.640625 -57.59375 C 131.046875 -61.8125 132.179688 -66.628906 133.046875 -72.046875 C 135.210938 -82.859375 136.296875 -96.488281 136.296875 -112.9375 C 136.296875 -141.707031 132.507812 -163.234375 124.9375 -177.515625 C 118.226562 -190.054688 109.035156 -196.328125 97.359375 -196.328125 Z M 97.359375 -196.328125 "/></g></g></g><g fill="#2287ff" fill-opacity="1"><g transform="translate(844.369408, 296.663146)"><g><path d="M 62.3125 -161.9375 C 64.039062 -163.664062 65.769531 -165.175781 67.5 -166.46875 C 69.226562 -167.769531 71.066406 -168.960938 73.015625 -170.046875 C 83.828125 -177.179688 96.484375 -180.75 110.984375 -180.75 C 121.585938 -180.75 131 -179.070312 139.21875 -175.71875 C 147.4375 -172.363281 154.359375 -167.335938 159.984375 -160.640625 C 170.585938 -147.660156 175.890625 -130.785156 175.890625 -110.015625 L 175.890625 8.109375 L 130.453125 8.109375 L 130.453125 -106.765625 C 130.453125 -110.441406 130.179688 -113.796875 129.640625 -116.828125 C 129.097656 -119.859375 128.335938 -122.5625 127.359375 -124.9375 C 126.390625 -127.320312 125.148438 -129.378906 123.640625 -131.109375 C 122.335938 -132.835938 120.875 -134.296875 119.25 -135.484375 C 117.632812 -136.671875 115.742188 -137.535156 113.578125 -138.078125 C 111.410156 -138.617188 108.921875 -138.890625 106.109375 -138.890625 C 102.222656 -138.890625 98.332031 -138.132812 94.4375 -136.625 C 90.320312 -135.101562 86.316406 -132.9375 82.421875 -130.125 C 78.523438 -127.101562 74.847656 -123.753906 71.390625 -120.078125 C 70.097656 -118.335938 68.691406 -116.546875 67.171875 -114.703125 C 65.660156 -112.867188 64.363281 -111.085938 63.28125 -109.359375 L 63.28125 8.109375 L 17.84375 8.109375 L 17.84375 -176.859375 L 62.3125 -176.859375 Z M 62.3125 -161.9375 "/></g></g></g><g fill="#2287ff" fill-opacity="1"><g transform="translate(1036.45958, 296.663146)"><g><path d="M 92.8125 -180.75 C 98.21875 -180.75 103.351562 -180.316406 108.21875 -179.453125 C 113.09375 -178.585938 117.691406 -177.179688 122.015625 -175.234375 C 125.046875 -173.941406 127.96875 -172.535156 130.78125 -171.015625 L 130.78125 -176.859375 L 173.609375 -176.859375 L 173.609375 -3.890625 C 173.609375 11.035156 171.554688 24.015625 167.453125 35.046875 C 165.503906 40.453125 163.066406 45.476562 160.140625 50.125 C 157.222656 54.78125 153.816406 58.894531 149.921875 62.46875 C 146.023438 66.039062 141.75 69.175781 137.09375 71.875 C 132.445312 74.582031 127.53125 76.800781 122.34375 78.53125 C 117.144531 80.039062 111.679688 81.226562 105.953125 82.09375 C 100.222656 82.96875 94.21875 83.40625 87.9375 83.40625 C 77.125 83.40625 66.742188 82.101562 56.796875 79.5 C 53.328125 78.632812 50.023438 77.660156 46.890625 76.578125 C 43.753906 75.503906 40.722656 74.207031 37.796875 72.6875 C 34.878906 71.175781 32.015625 69.554688 29.203125 67.828125 L 23.6875 64.25 L 26.28125 57.765625 L 37 32.453125 L 41.21875 22.71875 L 49.65625 29.203125 C 54.195312 32.878906 59.492188 35.910156 65.546875 38.296875 C 71.609375 40.671875 79.070312 41.859375 87.9375 41.859375 C 90.320312 41.859375 92.539062 41.75 94.59375 41.53125 C 96.644531 41.320312 98.644531 41.050781 100.59375 40.71875 C 102.539062 40.394531 104.328125 39.960938 105.953125 39.421875 C 107.578125 38.890625 109.144531 38.242188 110.65625 37.484375 C 112.175781 36.722656 113.582031 35.851562 114.875 34.875 C 116.175781 33.90625 117.472656 32.988281 118.765625 32.125 C 122.015625 28.882812 124.554688 24.554688 126.390625 19.140625 C 128.234375 13.734375 129.15625 7.03125 129.15625 -0.96875 L 129.15625 -3.890625 C 126.988281 -2.597656 124.828125 -1.300781 122.671875 0 C 113.367188 5.40625 102.332031 8.109375 89.5625 8.109375 C 86.101562 8.109375 82.585938 7.890625 79.015625 7.453125 C 75.453125 7.023438 71.992188 6.320312 68.640625 5.34375 C 65.285156 4.375 61.875 3.242188 58.40625 1.953125 C 48.457031 -2.378906 39.585938 -8.546875 31.796875 -16.546875 C 27.910156 -20.660156 24.453125 -25.148438 21.421875 -30.015625 C 18.390625 -34.878906 15.6875 -40.125 13.3125 -45.75 C 8.757812 -57.21875 6.484375 -70.304688 6.484375 -85.015625 C 6.484375 -98.648438 8.757812 -111.203125 13.3125 -122.671875 C 14.820312 -126.566406 16.492188 -130.296875 18.328125 -133.859375 C 20.171875 -137.429688 22.171875 -140.835938 24.328125 -144.078125 C 26.492188 -147.328125 28.878906 -150.359375 31.484375 -153.171875 C 39.265625 -161.828125 48.347656 -168.535156 58.734375 -173.296875 C 69.335938 -178.265625 80.695312 -180.75 92.8125 -180.75 Z M 96.0625 -34.078125 C 103.195312 -34.078125 109.6875 -35.695312 115.53125 -38.9375 C 120.5 -41.75 124.71875 -44.992188 128.1875 -48.671875 L 128.1875 -129.15625 C 124.507812 -131.539062 120.398438 -133.703125 115.859375 -135.640625 C 110.441406 -138.023438 103.734375 -139.21875 95.734375 -139.21875 C 92.921875 -139.21875 90.160156 -138.945312 87.453125 -138.40625 C 84.753906 -137.863281 82.210938 -137.050781 79.828125 -135.96875 C 74.640625 -133.59375 69.988281 -130.238281 65.875 -125.90625 C 61.976562 -121.582031 58.734375 -116.175781 56.140625 -109.6875 C 53.765625 -102.976562 52.578125 -95.296875 52.578125 -86.640625 C 52.578125 -82.535156 52.898438 -78.585938 53.546875 -74.796875 C 54.191406 -71.015625 55.054688 -67.5 56.140625 -64.25 C 58.734375 -57.757812 62.085938 -52.242188 66.203125 -47.703125 C 67.066406 -46.617188 68.039062 -45.585938 69.125 -44.609375 C 70.207031 -43.640625 71.34375 -42.722656 72.53125 -41.859375 C 73.71875 -40.992188 74.90625 -40.179688 76.09375 -39.421875 C 77.289062 -38.671875 78.535156 -38.078125 79.828125 -37.640625 C 82.421875 -36.347656 85.070312 -35.429688 87.78125 -34.890625 C 90.488281 -34.347656 93.25 -34.078125 96.0625 -34.078125 Z M 96.0625 -34.078125 "/></g></g></g></g></g></g><g transform="matrix(1, 0, 0, 1, 1400, 114)"><g clip-path="url(#f8a67dcfcf)"><g fill="#ffffff" fill-opacity="1"><g transform="translate(0.135589, 177.358847)"><g><path d="M 3.929688 -10.550781 C 3.929688 -12.726562 4.144531 -14.804688 4.574219 -16.777344 C 5.023438 -18.835938 5.734375 -20.839844 6.707031 -22.785156 C 7.820312 -25.015625 9.300781 -26.953125 11.140625 -28.589844 L 15.921875 -23.210938 L 10.636719 -28.089844 C 15.128906 -32.960938 21.175781 -35.394531 28.773438 -35.394531 C 35.3125 -35.394531 41.070312 -32.996094 46.046875 -28.199219 C 51.09375 -23.332031 53.617188 -17.449219 53.617188 -10.550781 C 53.617188 -3.210938 51.121094 2.769531 46.132812 7.390625 L 41.242188 2.109375 L 46.332031 7.199219 C 41.601562 11.925781 35.75 14.292969 28.773438 14.292969 C 22.054688 14.292969 16.234375 11.832031 11.3125 6.910156 C 6.390625 1.988281 3.929688 -3.832031 3.929688 -10.550781 Z M 18.320312 -10.550781 C 18.320312 -7.804688 19.375 -5.378906 21.488281 -3.265625 C 23.601562 -1.152344 26.03125 -0.0976562 28.773438 -0.0976562 C 31.773438 -0.0976562 34.234375 -1.058594 36.15625 -2.976562 L 36.253906 -3.074219 L 36.355469 -3.167969 C 38.269531 -4.941406 39.226562 -7.402344 39.226562 -10.550781 C 39.226562 -13.371094 38.171875 -15.800781 36.058594 -17.839844 C 33.871094 -19.949219 31.441406 -21.003906 28.773438 -21.003906 C 25.375 -21.003906 22.851562 -20.113281 21.207031 -18.332031 L 20.96875 -18.070312 L 20.703125 -17.832031 C 20.242188 -17.425781 19.867188 -16.929688 19.574219 -16.347656 C 19.140625 -15.480469 18.828125 -14.605469 18.636719 -13.722656 C 18.425781 -12.753906 18.320312 -11.699219 18.320312 -10.550781 Z M 18.320312 -10.550781 "/></g></g></g><g fill="#ffffff" fill-opacity="1"><g transform="translate(52.882607, 177.358847)"><g><path d="M 73.429688 -70.828125 C 72.523438 -71.328125 71.65625 -71.753906 70.828125 -72.09375 C 69.933594 -72.460938 69.078125 -72.773438 68.253906 -73.03125 C 67.289062 -73.332031 66.386719 -73.601562 65.546875 -73.84375 C 64.535156 -74.117188 63.40625 -74.332031 62.160156 -74.480469 C 60.84375 -74.636719 59.4375 -74.714844 57.933594 -74.714844 C 55.070312 -74.714844 52.421875 -74.203125 49.992188 -73.175781 C 47.804688 -72.210938 45.902344 -70.832031 44.289062 -69.042969 C 42.476562 -67.039062 41.027344 -64.554688 39.941406 -61.59375 L 33.1875 -64.070312 L 40.054688 -61.925781 C 39.507812 -60.183594 39.074219 -58.351562 38.742188 -56.429688 C 38.429688 -54.59375 38.269531 -52.535156 38.269531 -50.257812 C 38.269531 -46.28125 38.792969 -42.671875 39.84375 -39.421875 C 40.839844 -36.332031 42.261719 -33.671875 44.105469 -31.4375 L 44.179688 -31.347656 L 44.25 -31.253906 C 45.804688 -29.242188 47.671875 -27.648438 49.847656 -26.46875 L 46.421875 -20.140625 L 49.640625 -26.578125 C 51.695312 -25.550781 54.078125 -25.035156 56.78125 -25.035156 C 60.445312 -25.035156 63.480469 -25.386719 65.894531 -26.089844 C 68.453125 -26.835938 71.355469 -28.105469 74.597656 -29.894531 L 86.695312 -36.667969 L 91.535156 -23.601562 L 96.910156 -9.007812 L 100.6875 0.902344 L 91.402344 5.792969 C 86.429688 8.347656 81.074219 10.398438 75.335938 11.9375 C 69.480469 13.507812 62.914062 14.292969 55.628906 14.292969 C 54.230469 14.292969 52.832031 14.257812 51.433594 14.1875 C 49.898438 14.109375 48.398438 13.957031 46.929688 13.726562 L 43.351562 13.144531 C 41.929688 12.90625 40.523438 12.59375 39.125 12.207031 C 37.859375 11.855469 36.589844 11.46875 35.324219 11.046875 C 33.847656 10.554688 32.449219 9.976562 31.121094 9.3125 L 34.335938 2.878906 L 31.441406 9.464844 C 24.101562 6.234375 17.785156 1.679688 12.492188 -4.203125 C 7.355469 -10.074219 3.417969 -16.96875 0.679688 -24.890625 C -2.011719 -32.542969 -3.359375 -40.871094 -3.359375 -49.875 C -3.359375 -58.367188 -2.007812 -66.453125 0.695312 -74.132812 C 3.433594 -81.914062 7.410156 -88.773438 12.625 -94.714844 C 18.074219 -100.753906 24.515625 -105.449219 31.957031 -108.804688 C 35.742188 -110.550781 39.757812 -111.863281 44.007812 -112.742188 C 48.195312 -113.609375 52.519531 -114.042969 56.972656 -114.042969 C 60.269531 -114.042969 63.375 -113.90625 66.289062 -113.628906 C 69.394531 -113.332031 72.304688 -112.808594 75.011719 -112.054688 L 73.085938 -105.121094 L 74.691406 -112.136719 C 79.671875 -110.996094 84.570312 -109.296875 89.386719 -107.027344 L 89.464844 -106.992188 L 98.957031 -102.246094 L 95.644531 -92.296875 L 90.417969 -77.585938 L 85.722656 -64.910156 L 73.617188 -70.722656 Z M 80.417969 -83.40625 L 76.921875 -77.117188 L 80.035156 -83.601562 L 84.832031 -81.300781 L 81.71875 -74.8125 L 74.972656 -77.3125 L 76.859375 -82.402344 L 81.992188 -96.847656 L 83.335938 -100.875 L 90.160156 -98.601562 L 86.941406 -92.164062 L 83.105469 -94.082031 L 86.324219 -100.519531 L 83.261719 -94.007812 C 79.378906 -95.835938 75.453125 -97.199219 71.484375 -98.109375 L 71.320312 -98.144531 L 71.160156 -98.191406 C 69.265625 -98.714844 67.1875 -99.085938 64.921875 -99.304688 C 62.464844 -99.539062 59.816406 -99.65625 56.972656 -99.65625 C 53.5 -99.65625 50.148438 -99.320312 46.921875 -98.652344 C 43.75 -97.996094 40.734375 -97.007812 37.871094 -95.6875 C 32.265625 -93.160156 27.453125 -89.667969 23.4375 -85.222656 C 19.445312 -80.675781 16.390625 -75.386719 14.269531 -69.355469 C 12.109375 -63.222656 11.03125 -56.730469 11.03125 -49.875 C 11.03125 -42.511719 12.113281 -35.746094 14.28125 -29.589844 C 16.40625 -23.441406 19.375 -18.1875 23.1875 -13.828125 C 27.101562 -9.480469 31.785156 -6.105469 37.234375 -3.707031 L 37.398438 -3.636719 L 37.554688 -3.558594 C 38.273438 -3.199219 39.046875 -2.882812 39.875 -2.605469 C 40.910156 -2.261719 41.945312 -1.945312 42.976562 -1.65625 C 43.882812 -1.40625 44.777344 -1.207031 45.65625 -1.058594 L 49.175781 -0.488281 C 50.136719 -0.335938 51.128906 -0.234375 52.152344 -0.183594 C 53.3125 -0.125 54.472656 -0.0976562 55.628906 -0.0976562 C 61.648438 -0.0976562 66.972656 -0.71875 71.605469 -1.960938 C 76.355469 -3.234375 80.71875 -4.894531 84.699219 -6.941406 L 88.34375 -8.859375 L 91.695312 -2.492188 L 84.972656 0.0664062 L 83.410156 -4.035156 L 78.042969 -18.601562 L 76.125 -23.78125 L 82.871094 -26.28125 L 86.386719 -20.003906 L 81.550781 -17.296875 C 77.378906 -14.992188 73.5 -13.320312 69.921875 -12.277344 C 66.195312 -11.1875 61.816406 -10.644531 56.78125 -10.644531 C 51.8125 -10.644531 47.289062 -11.664062 43.207031 -13.707031 L 43.101562 -13.757812 L 42.996094 -13.816406 C 39.035156 -15.960938 35.660156 -18.839844 32.863281 -22.457031 L 38.558594 -26.855469 L 33.011719 -22.273438 C 29.996094 -25.921875 27.707031 -30.167969 26.148438 -35.007812 C 24.636719 -39.6875 23.882812 -44.773438 23.882812 -50.257812 C 23.882812 -53.351562 24.109375 -56.21875 24.5625 -58.859375 C 25 -61.414062 25.585938 -63.867188 26.320312 -66.21875 L 26.371094 -66.382812 L 26.429688 -66.546875 C 28.160156 -71.261719 30.546875 -75.300781 33.59375 -78.667969 C 36.585938 -81.992188 40.183594 -84.578125 44.386719 -86.425781 C 48.609375 -88.214844 53.125 -89.105469 57.933594 -89.105469 C 60.007812 -89.105469 61.988281 -88.992188 63.875 -88.765625 C 65.820312 -88.53125 67.699219 -88.171875 69.5 -87.679688 C 70.453125 -87.40625 71.46875 -87.101562 72.546875 -86.765625 C 73.773438 -86.382812 75.023438 -85.925781 76.304688 -85.398438 C 77.652344 -84.84375 79.023438 -84.179688 80.417969 -83.40625 Z M 80.417969 -83.40625 "/></g></g></g><g fill="#ffffff" fill-opacity="1"><g transform="translate(141.498321, 177.358847)"><g><path d="M 77.402344 -49.875 C 77.402344 -53.527344 76.835938 -56.945312 75.707031 -60.128906 C 74.597656 -63.148438 73.09375 -65.8125 71.183594 -68.121094 L 76.730469 -72.703125 L 71.644531 -67.617188 C 70.8125 -68.449219 69.980469 -69.25 69.152344 -70.019531 C 68.511719 -70.613281 67.828125 -71.160156 67.09375 -71.667969 C 66.433594 -72.117188 65.730469 -72.511719 64.984375 -72.84375 L 64.625 -73.003906 L 64.28125 -73.203125 C 63.410156 -73.710938 62.453125 -74.078125 61.414062 -74.300781 C 60.117188 -74.578125 58.765625 -74.714844 57.355469 -74.714844 C 50.988281 -74.714844 46.15625 -72.800781 42.859375 -68.96875 C 39.160156 -64.589844 37.3125 -58.351562 37.3125 -50.257812 C 37.3125 -46.609375 37.878906 -43.191406 39.007812 -40.003906 L 32.226562 -37.597656 L 38.90625 -40.269531 L 39.675781 -38.351562 C 39.855469 -37.898438 40.0625 -37.441406 40.292969 -36.980469 C 40.566406 -36.433594 40.835938 -35.917969 41.105469 -35.433594 C 41.367188 -34.964844 41.625 -34.527344 41.878906 -34.121094 C 42.160156 -33.671875 42.472656 -33.1875 42.816406 -32.667969 C 42.746094 -32.777344 42.636719 -32.886719 42.492188 -32.996094 L 43.3125 -32.378906 L 43.929688 -31.558594 C 44.4375 -30.878906 44.984375 -30.269531 45.5625 -29.730469 C 46.203125 -29.136719 46.886719 -28.589844 47.621094 -28.085938 C 48.28125 -27.632812 48.980469 -27.242188 49.726562 -26.910156 L 50.089844 -26.746094 L 50.433594 -26.546875 C 51.304688 -26.039062 52.261719 -25.671875 53.300781 -25.449219 C 54.59375 -25.171875 55.945312 -25.035156 57.355469 -25.035156 C 60.652344 -25.035156 63.484375 -25.582031 65.851562 -26.675781 C 67.035156 -27.222656 68.089844 -27.847656 69.015625 -28.550781 C 69.910156 -29.230469 70.753906 -30.058594 71.546875 -31.027344 L 71.660156 -31.167969 L 71.78125 -31.300781 C 73.519531 -33.222656 74.867188 -35.671875 75.832031 -38.65625 C 76.878906 -41.902344 77.402344 -45.644531 77.402344 -49.875 Z M 91.792969 -49.875 C 91.792969 -44.132812 91.035156 -38.921875 89.527344 -34.238281 C 87.929688 -29.292969 85.570312 -25.09375 82.449219 -21.644531 L 77.117188 -26.472656 L 82.683594 -21.917969 C 81.175781 -20.074219 79.527344 -18.46875 77.734375 -17.105469 C 75.972656 -15.761719 74.023438 -14.597656 71.882812 -13.609375 C 67.601562 -11.632812 62.757812 -10.644531 57.355469 -10.644531 C 54.929688 -10.644531 52.574219 -10.890625 50.285156 -11.378906 C 47.746094 -11.925781 45.378906 -12.835938 43.179688 -14.121094 L 46.804688 -20.332031 L 43.882812 -13.757812 C 42.328125 -14.449219 40.855469 -15.273438 39.46875 -16.226562 C 38.15625 -17.128906 36.925781 -18.117188 35.773438 -19.1875 C 34.5625 -20.308594 33.445312 -21.554688 32.417969 -22.921875 L 38.175781 -27.238281 L 33.855469 -21.484375 C 32.6875 -22.359375 31.683594 -23.429688 30.84375 -24.6875 C 30.421875 -25.320312 30.03125 -25.925781 29.675781 -26.496094 C 29.289062 -27.113281 28.90625 -27.761719 28.527344 -28.445312 C 28.15625 -29.113281 27.789062 -29.8125 27.421875 -30.542969 C 27.015625 -31.363281 26.644531 -32.183594 26.316406 -33.007812 L 25.496094 -35.058594 L 25.445312 -35.191406 C 23.765625 -39.933594 22.921875 -44.957031 22.921875 -50.257812 C 22.921875 -61.859375 25.933594 -71.226562 31.953125 -78.355469 C 38.121094 -85.523438 46.589844 -89.105469 57.355469 -89.105469 C 59.785156 -89.105469 62.140625 -88.859375 64.425781 -88.371094 C 66.96875 -87.828125 69.335938 -86.914062 71.53125 -85.632812 L 67.90625 -79.417969 L 70.828125 -85.992188 C 72.386719 -85.300781 73.855469 -84.476562 75.246094 -83.523438 C 76.558594 -82.621094 77.789062 -81.636719 78.941406 -80.566406 C 79.902344 -79.671875 80.863281 -78.75 81.820312 -77.789062 L 82.0625 -77.550781 L 82.277344 -77.285156 C 85.230469 -73.710938 87.5625 -69.597656 89.265625 -64.941406 C 90.949219 -60.199219 91.792969 -55.175781 91.792969 -49.875 Z M -4.316406 -49.875 C -4.316406 -59.496094 -2.738281 -68.25 0.417969 -76.144531 C 3.589844 -84.074219 7.945312 -90.847656 13.488281 -96.460938 C 19.042969 -102.089844 25.609375 -106.433594 33.179688 -109.492188 C 40.691406 -112.527344 48.75 -114.042969 57.355469 -114.042969 C 59.53125 -114.042969 61.640625 -113.933594 63.6875 -113.714844 C 65.644531 -113.503906 67.601562 -113.226562 69.554688 -112.875 C 71.609375 -112.511719 73.628906 -112.03125 75.609375 -111.445312 C 77.519531 -110.878906 79.394531 -110.242188 81.234375 -109.535156 C 85.054688 -108.066406 88.625 -106.226562 91.945312 -104.011719 C 95.164062 -101.863281 98.203125 -99.433594 101.0625 -96.71875 L 101.164062 -96.625 L 101.257812 -96.523438 C 106.785156 -90.855469 111.128906 -84.0625 114.296875 -76.144531 C 117.453125 -68.394531 119.03125 -59.765625 119.03125 -50.257812 C 119.03125 -40.804688 117.53125 -32.148438 114.53125 -24.289062 C 111.335938 -16.300781 106.976562 -9.472656 101.453125 -3.804688 C 98.703125 -0.910156 95.640625 1.675781 92.261719 3.953125 C 88.9375 6.195312 85.398438 8.109375 81.644531 9.695312 C 74.058594 12.761719 65.960938 14.292969 57.355469 14.292969 C 53.0625 14.292969 48.867188 13.898438 44.773438 13.105469 C 40.632812 12.308594 36.667969 11.105469 32.878906 9.503906 C 25.320312 6.308594 18.773438 1.828125 13.230469 -3.933594 C 7.722656 -9.660156 3.386719 -16.472656 0.226562 -24.375 C -2.804688 -32.164062 -4.316406 -40.664062 -4.316406 -49.875 Z M 10.070312 -49.875 C 10.070312 -42.464844 11.242188 -35.746094 13.585938 -29.71875 C 16.050781 -23.554688 19.390625 -18.285156 23.601562 -13.90625 C 27.777344 -9.566406 32.738281 -6.179688 38.484375 -3.75 C 41.34375 -2.539062 44.347656 -1.628906 47.5 -1.023438 C 50.691406 -0.40625 53.980469 -0.0976562 57.355469 -0.0976562 C 64.097656 -0.0976562 70.324219 -1.25 76.039062 -3.558594 C 78.9375 -4.78125 81.664062 -6.257812 84.222656 -7.980469 C 86.726562 -9.667969 89.035156 -11.625 91.144531 -13.84375 C 95.339844 -18.152344 98.65625 -23.34375 101.085938 -29.421875 C 103.457031 -35.628906 104.640625 -42.574219 104.640625 -50.257812 C 104.640625 -57.886719 103.40625 -64.734375 100.9375 -70.796875 C 98.476562 -76.949219 95.148438 -82.175781 90.953125 -86.480469 L 96.105469 -91.503906 L 91.152344 -86.285156 C 88.894531 -88.433594 86.496094 -90.347656 83.964844 -92.039062 C 81.527344 -93.660156 78.894531 -95.015625 76.066406 -96.105469 C 74.582031 -96.675781 73.066406 -97.191406 71.523438 -97.648438 C 70.050781 -98.085938 68.554688 -98.4375 67.027344 -98.710938 C 65.402344 -99 63.777344 -99.234375 62.152344 -99.40625 C 60.617188 -99.570312 59.019531 -99.65625 57.355469 -99.65625 C 50.617188 -99.65625 44.351562 -98.484375 38.566406 -96.148438 C 32.835938 -93.835938 27.890625 -90.570312 23.726562 -86.351562 C 19.546875 -82.117188 16.230469 -76.933594 13.777344 -70.796875 C 11.308594 -64.621094 10.070312 -57.648438 10.070312 -49.875 Z M 10.070312 -49.875 "/></g></g></g><g fill="#ffffff" fill-opacity="1"><g transform="translate(256.200336, 177.358847)"><g><path d="M 32.09375 -101.328125 C 33.195312 -102.292969 34.269531 -103.195312 35.308594 -104.027344 C 36.582031 -105.046875 37.972656 -105.972656 39.476562 -106.808594 L 42.96875 -100.519531 L 38.980469 -106.503906 C 40.761719 -107.695312 42.617188 -108.769531 44.546875 -109.734375 C 46.628906 -110.777344 48.820312 -111.613281 51.128906 -112.25 C 53.289062 -112.847656 55.453125 -113.292969 57.621094 -113.59375 C 59.800781 -113.894531 62.078125 -114.042969 64.453125 -114.042969 C 75.023438 -114.042969 83.894531 -111.316406 91.0625 -105.859375 C 95.398438 -102.609375 98.960938 -98.582031 101.753906 -93.773438 L 95.53125 -90.160156 L 90.164062 -94.953125 C 93.644531 -98.847656 97.339844 -102.332031 101.253906 -105.410156 L 101.410156 -105.53125 L 101.570312 -105.644531 C 103.070312 -106.695312 104.640625 -107.667969 106.28125 -108.5625 C 107.984375 -109.492188 109.761719 -110.300781 111.613281 -110.996094 C 113.425781 -111.675781 115.273438 -112.242188 117.160156 -112.695312 C 119.039062 -113.144531 120.957031 -113.484375 122.90625 -113.707031 C 124.84375 -113.933594 126.84375 -114.042969 128.910156 -114.042969 L 131.117188 -114.042969 C 132.035156 -114.042969 132.957031 -114.003906 133.878906 -113.917969 C 134.792969 -113.835938 135.707031 -113.710938 136.621094 -113.542969 C 137.367188 -113.410156 138.082031 -113.273438 138.761719 -113.136719 L 140.679688 -112.753906 C 141.539062 -112.582031 142.398438 -112.367188 143.253906 -112.109375 C 144.097656 -111.855469 144.9375 -111.5625 145.777344 -111.226562 L 147.820312 -110.410156 L 147.945312 -110.355469 C 149.34375 -109.730469 150.707031 -109.03125 152.027344 -108.253906 C 153.410156 -107.441406 154.714844 -106.542969 155.945312 -105.5625 C 157.042969 -104.683594 158.101562 -103.769531 159.125 -102.816406 C 160.335938 -101.695312 161.457031 -100.449219 162.480469 -99.082031 L 156.726562 -94.765625 L 162.175781 -99.460938 C 166.078125 -94.933594 168.875 -89.59375 170.566406 -83.433594 L 163.628906 -81.527344 L 170.507812 -83.644531 C 172.253906 -77.964844 173.128906 -71.761719 173.128906 -65.03125 L 173.128906 11.992188 L 131.882812 11.992188 L 131.882812 -63.6875 C 131.882812 -67.988281 131.074219 -71.226562 129.457031 -73.410156 L 135.238281 -77.691406 L 129.574219 -73.257812 C 128.710938 -74.359375 127.46875 -74.910156 125.839844 -74.910156 C 124.542969 -74.910156 123.328125 -74.660156 122.203125 -74.167969 C 120.507812 -73.414062 118.882812 -72.410156 117.332031 -71.148438 C 115.472656 -69.613281 113.640625 -67.835938 111.84375 -65.8125 L 106.464844 -70.59375 L 112.222656 -66.277344 C 111.429688 -65.21875 110.570312 -64.097656 109.652344 -62.914062 C 108.90625 -61.957031 108.28125 -61.074219 107.769531 -60.257812 L 101.667969 -64.070312 L 108.863281 -64.070312 L 108.863281 11.992188 L 67.617188 11.992188 L 67.617188 -63.6875 C 67.617188 -67.988281 66.8125 -71.226562 65.195312 -73.410156 L 70.976562 -77.691406 L 65.3125 -73.257812 C 64.449219 -74.359375 63.203125 -74.910156 61.578125 -74.910156 C 60.351562 -74.910156 59.089844 -74.640625 57.792969 -74.109375 L 57.6875 -74.0625 L 57.582031 -74.023438 C 56.890625 -73.765625 56.128906 -73.402344 55.289062 -72.9375 C 54.582031 -72.542969 53.910156 -72.070312 53.269531 -71.507812 L 52.914062 -71.199219 L 52.523438 -70.9375 C 52.351562 -70.824219 52.175781 -70.6875 51.988281 -70.535156 C 51.769531 -70.351562 51.582031 -70.179688 51.414062 -70.015625 C 50.941406 -69.539062 50.429688 -69.074219 49.878906 -68.613281 C 49.660156 -68.433594 49.46875 -68.261719 49.304688 -68.09375 C 49.136719 -67.929688 48.964844 -67.738281 48.785156 -67.523438 C 48.324219 -66.972656 47.828125 -66.425781 47.289062 -65.890625 L 42.203125 -70.976562 L 47.957031 -66.660156 C 47.125 -65.550781 46.226562 -64.410156 45.261719 -63.238281 C 44.566406 -62.394531 43.980469 -61.589844 43.507812 -60.832031 L 37.40625 -64.648438 L 44.601562 -64.648438 L 44.601562 11.992188 L 3.355469 11.992188 L 3.355469 -111.742188 L 44.027344 -111.742188 L 44.027344 -95.914062 L 36.832031 -95.914062 Z M 29.636719 -80.058594 L 29.636719 -104.546875 L 36.832031 -104.546875 L 36.832031 -97.351562 L 10.550781 -97.351562 L 10.550781 -104.546875 L 17.746094 -104.546875 L 17.746094 4.796875 L 10.550781 4.796875 L 10.550781 -2.398438 L 37.40625 -2.398438 L 37.40625 4.796875 L 30.210938 4.796875 L 30.210938 -66.710938 L 31.304688 -68.460938 C 32.109375 -69.75 33.0625 -71.058594 34.15625 -72.386719 C 34.980469 -73.386719 35.746094 -74.359375 36.445312 -75.292969 L 36.753906 -75.703125 L 37.113281 -76.0625 C 37.34375 -76.292969 37.550781 -76.515625 37.730469 -76.734375 C 38.1875 -77.285156 38.65625 -77.796875 39.128906 -78.269531 C 39.601562 -78.742188 40.113281 -79.210938 40.664062 -79.667969 C 40.882812 -79.851562 41.074219 -80.023438 41.238281 -80.1875 C 41.714844 -80.664062 42.226562 -81.128906 42.777344 -81.585938 C 43.355469 -82.070312 43.945312 -82.511719 44.542969 -82.910156 L 48.53125 -76.921875 L 43.796875 -82.339844 C 45.203125 -83.570312 46.703125 -84.628906 48.300781 -85.515625 C 49.761719 -86.328125 51.171875 -86.988281 52.527344 -87.496094 L 55.054688 -80.761719 L 52.316406 -87.414062 C 55.367188 -88.667969 58.453125 -89.296875 61.578125 -89.296875 C 67.878906 -89.296875 72.902344 -86.90625 76.644531 -82.125 L 76.703125 -82.050781 L 76.757812 -81.972656 C 80.257812 -77.25 82.007812 -71.152344 82.007812 -63.6875 L 82.007812 4.796875 L 74.8125 4.796875 L 74.8125 -2.398438 L 101.667969 -2.398438 L 101.667969 4.796875 L 94.476562 4.796875 L 94.476562 -66.132812 L 95.570312 -67.882812 C 96.339844 -69.117188 97.246094 -70.402344 98.292969 -71.75 C 99.160156 -72.867188 99.96875 -73.921875 100.710938 -74.910156 L 100.890625 -75.148438 L 101.089844 -75.375 C 103.382812 -77.953125 105.773438 -80.269531 108.257812 -82.316406 C 110.800781 -84.378906 113.523438 -86.058594 116.433594 -87.351562 C 119.398438 -88.648438 122.535156 -89.296875 125.839844 -89.296875 C 132.140625 -89.296875 137.164062 -86.90625 140.90625 -82.125 L 140.964844 -82.050781 L 141.019531 -81.972656 C 144.519531 -77.25 146.269531 -71.152344 146.269531 -63.6875 L 146.269531 4.796875 L 139.078125 4.796875 L 139.078125 -2.398438 L 165.933594 -2.398438 L 165.933594 4.796875 L 158.738281 4.796875 L 158.738281 -65.03125 C 158.738281 -70.320312 158.078125 -75.113281 156.753906 -79.410156 L 156.722656 -79.515625 L 156.695312 -79.621094 C 155.574219 -83.695312 153.765625 -87.175781 151.277344 -90.066406 L 151.117188 -90.25 L 150.96875 -90.445312 C 150.460938 -91.125 149.914062 -91.734375 149.335938 -92.273438 C 148.570312 -92.984375 147.777344 -93.667969 146.953125 -94.324219 C 146.265625 -94.878906 145.523438 -95.386719 144.730469 -95.851562 C 143.878906 -96.351562 143.003906 -96.804688 142.101562 -97.207031 L 145.023438 -103.78125 L 142.351562 -97.101562 L 140.433594 -97.867188 C 139.992188 -98.042969 139.554688 -98.195312 139.121094 -98.328125 C 138.695312 -98.453125 138.277344 -98.558594 137.855469 -98.644531 L 135.9375 -99.027344 C 135.339844 -99.144531 134.710938 -99.265625 134.046875 -99.386719 C 133.554688 -99.476562 133.066406 -99.542969 132.574219 -99.589844 C 132.085938 -99.632812 131.601562 -99.65625 131.117188 -99.65625 L 128.910156 -99.65625 C 127.394531 -99.65625 125.945312 -99.574219 124.554688 -99.414062 C 123.179688 -99.253906 121.835938 -99.019531 120.515625 -98.703125 C 119.207031 -98.386719 117.921875 -97.996094 116.664062 -97.523438 C 115.445312 -97.066406 114.28125 -96.535156 113.171875 -95.929688 C 112 -95.289062 110.882812 -94.597656 109.824219 -93.855469 L 105.699219 -99.75 L 110.144531 -94.09375 C 106.894531 -91.542969 103.8125 -88.632812 100.898438 -85.367188 L 94.289062 -77.96875 L 89.308594 -86.546875 C 87.496094 -89.667969 85.175781 -92.289062 82.351562 -94.410156 C 77.753906 -97.90625 71.789062 -99.65625 64.453125 -99.65625 C 62.738281 -99.65625 61.117188 -99.550781 59.585938 -99.339844 C 58.046875 -99.125 56.503906 -98.804688 54.953125 -98.378906 C 53.550781 -97.992188 52.226562 -97.488281 50.984375 -96.863281 C 49.585938 -96.167969 48.246094 -95.390625 46.960938 -94.53125 L 46.71875 -94.371094 L 46.464844 -94.230469 C 45.664062 -93.785156 44.945312 -93.304688 44.300781 -92.789062 C 43.421875 -92.089844 42.511719 -91.324219 41.570312 -90.5 Z M 29.636719 -80.058594 "/></g></g></g><g fill="#06214f" fill-opacity="1"><g transform="translate(0.135589, 177.358847)"><g><path d="M 11.125 -10.546875 C 11.125 -12.210938 11.28125 -13.78125 11.59375 -15.25 C 11.914062 -16.71875 12.425781 -18.15625 13.125 -19.5625 C 13.832031 -20.96875 14.765625 -22.1875 15.921875 -23.21875 C 18.992188 -26.539062 23.28125 -28.203125 28.78125 -28.203125 C 33.382812 -28.203125 37.472656 -26.472656 41.046875 -23.015625 C 44.628906 -19.566406 46.421875 -15.410156 46.421875 -10.546875 C 46.421875 -5.304688 44.695312 -1.085938 41.25 2.109375 C 37.914062 5.429688 33.757812 7.09375 28.78125 7.09375 C 24.039062 7.09375 19.910156 5.332031 16.390625 1.8125 C 12.878906 -1.695312 11.125 -5.816406 11.125 -10.546875 Z M 11.125 -10.546875 "/></g></g></g><g fill="#06214f" fill-opacity="1"><g transform="translate(52.882607, 177.358847)"><g><path d="M 76.921875 -77.109375 C 75.773438 -77.753906 74.65625 -78.300781 73.5625 -78.75 C 72.476562 -79.195312 71.421875 -79.578125 70.390625 -79.890625 C 69.367188 -80.210938 68.414062 -80.503906 67.53125 -80.765625 C 66.113281 -81.140625 64.609375 -81.421875 63.015625 -81.609375 C 61.421875 -81.804688 59.726562 -81.90625 57.9375 -81.90625 C 54.09375 -81.90625 50.507812 -81.203125 47.1875 -79.796875 C 43.988281 -78.390625 41.238281 -76.410156 38.9375 -73.859375 C 36.507812 -71.171875 34.59375 -67.910156 33.1875 -64.078125 C 32.550781 -62.023438 32.039062 -59.878906 31.65625 -57.640625 C 31.269531 -55.398438 31.078125 -52.941406 31.078125 -50.265625 C 31.078125 -45.523438 31.71875 -41.175781 33 -37.21875 C 34.269531 -33.25 36.125 -29.796875 38.5625 -26.859375 C 40.726562 -24.046875 43.347656 -21.804688 46.421875 -20.140625 C 49.492188 -18.609375 52.945312 -17.84375 56.78125 -17.84375 C 61.125 -17.84375 64.832031 -18.289062 67.90625 -19.1875 C 70.976562 -20.082031 74.367188 -21.550781 78.078125 -23.59375 L 82.875 -26.28125 L 84.78125 -21.09375 L 90.15625 -6.515625 L 91.6875 -2.5 L 88.046875 -0.578125 C 83.566406 1.722656 78.707031 3.578125 73.46875 4.984375 C 68.226562 6.390625 62.28125 7.09375 55.625 7.09375 C 54.351562 7.09375 53.078125 7.0625 51.796875 7 C 50.515625 6.9375 49.265625 6.804688 48.046875 6.609375 C 46.835938 6.421875 45.65625 6.226562 44.5 6.03125 C 43.351562 5.84375 42.203125 5.585938 41.046875 5.265625 C 39.898438 4.953125 38.75 4.601562 37.59375 4.21875 C 36.445312 3.832031 35.363281 3.382812 34.34375 2.875 C 27.945312 0.0625 22.445312 -3.898438 17.84375 -9.015625 C 13.363281 -14.128906 9.910156 -20.203125 7.484375 -27.234375 C 5.054688 -34.140625 3.84375 -41.6875 3.84375 -49.875 C 3.84375 -57.550781 5.054688 -64.84375 7.484375 -71.75 C 9.910156 -78.65625 13.425781 -84.726562 18.03125 -89.96875 C 22.757812 -95.207031 28.382812 -99.300781 34.90625 -102.25 C 38.238281 -103.78125 41.757812 -104.925781 45.46875 -105.6875 C 49.175781 -106.457031 53.007812 -106.84375 56.96875 -106.84375 C 60.039062 -106.84375 62.921875 -106.710938 65.609375 -106.453125 C 68.296875 -106.203125 70.789062 -105.757812 73.09375 -105.125 C 77.5625 -104.101562 81.972656 -102.566406 86.328125 -100.515625 L 90.15625 -98.59375 L 88.8125 -94.578125 L 83.640625 -80 L 81.71875 -74.8125 Z M 76.921875 -77.109375 "/></g></g></g><g fill="#06214f" fill-opacity="1"><g transform="translate(141.498321, 177.358847)"><g><path d="M 84.59375 -49.875 C 84.59375 -54.351562 83.890625 -58.570312 82.484375 -62.53125 C 81.078125 -66.375 79.160156 -69.765625 76.734375 -72.703125 C 75.835938 -73.597656 74.941406 -74.460938 74.046875 -75.296875 C 73.148438 -76.128906 72.191406 -76.894531 71.171875 -77.59375 C 70.148438 -78.300781 69.0625 -78.910156 67.90625 -79.421875 C 66.375 -80.316406 64.710938 -80.953125 62.921875 -81.328125 C 61.128906 -81.710938 59.273438 -81.90625 57.359375 -81.90625 C 48.785156 -81.90625 42.132812 -79.15625 37.40625 -73.65625 C 32.539062 -67.90625 30.109375 -60.109375 30.109375 -50.265625 C 30.109375 -45.785156 30.816406 -41.5625 32.234375 -37.59375 C 32.484375 -36.957031 32.734375 -36.316406 32.984375 -35.671875 C 33.242188 -35.035156 33.535156 -34.394531 33.859375 -33.75 C 34.179688 -33.113281 34.5 -32.507812 34.8125 -31.9375 C 35.132812 -31.363281 35.453125 -30.820312 35.765625 -30.3125 C 36.085938 -29.800781 36.441406 -29.253906 36.828125 -28.671875 C 37.210938 -28.097656 37.660156 -27.617188 38.171875 -27.234375 C 38.941406 -26.210938 39.773438 -25.285156 40.671875 -24.453125 C 41.566406 -23.628906 42.523438 -22.863281 43.546875 -22.15625 C 44.566406 -21.445312 45.65625 -20.835938 46.8125 -20.328125 C 48.34375 -19.429688 50.003906 -18.789062 51.796875 -18.40625 C 53.585938 -18.03125 55.441406 -17.84375 57.359375 -17.84375 C 61.703125 -17.84375 65.535156 -18.609375 68.859375 -20.140625 C 70.523438 -20.910156 72.03125 -21.804688 73.375 -22.828125 C 74.71875 -23.847656 75.960938 -25.0625 77.109375 -26.46875 C 79.546875 -29.15625 81.398438 -32.484375 82.671875 -36.453125 C 83.953125 -40.410156 84.59375 -44.882812 84.59375 -49.875 Z M 2.875 -49.875 C 2.875 -58.570312 4.28125 -66.4375 7.09375 -73.46875 C 9.90625 -80.5 13.738281 -86.476562 18.59375 -91.40625 C 23.457031 -96.332031 29.21875 -100.132812 35.875 -102.8125 C 42.519531 -105.5 49.679688 -106.84375 57.359375 -106.84375 C 59.273438 -106.84375 61.128906 -106.742188 62.921875 -106.546875 C 64.710938 -106.359375 66.5 -106.101562 68.28125 -105.78125 C 70.070312 -105.46875 71.832031 -105.054688 73.5625 -104.546875 C 75.289062 -104.035156 76.988281 -103.457031 78.65625 -102.8125 C 81.976562 -101.539062 85.078125 -99.941406 87.953125 -98.015625 C 90.828125 -96.097656 93.546875 -93.925781 96.109375 -91.5 C 100.960938 -86.507812 104.796875 -80.5 107.609375 -73.46875 C 110.421875 -66.5625 111.828125 -58.820312 111.828125 -50.25 C 111.828125 -41.6875 110.488281 -33.890625 107.8125 -26.859375 C 105 -19.828125 101.160156 -13.816406 96.296875 -8.828125 C 93.867188 -6.265625 91.179688 -3.992188 88.234375 -2.015625 C 85.296875 -0.0351562 82.164062 1.65625 78.84375 3.0625 C 72.1875 5.75 65.023438 7.09375 57.359375 7.09375 C 53.523438 7.09375 49.785156 6.738281 46.140625 6.03125 C 42.492188 5.332031 39.007812 4.28125 35.6875 2.875 C 29.03125 0.0625 23.269531 -3.867188 18.40625 -8.921875 C 13.550781 -13.972656 9.71875 -20.015625 6.90625 -27.046875 C 4.21875 -33.953125 2.875 -41.5625 2.875 -49.875 Z M 2.875 -49.875 "/></g></g></g><g fill="#06214f" fill-opacity="1"><g transform="translate(256.200336, 177.358847)"><g><path d="M 36.828125 -95.90625 C 37.847656 -96.800781 38.835938 -97.632812 39.796875 -98.40625 C 40.765625 -99.175781 41.820312 -99.878906 42.96875 -100.515625 C 44.5 -101.535156 46.097656 -102.460938 47.765625 -103.296875 C 49.429688 -104.128906 51.191406 -104.800781 53.046875 -105.3125 C 54.898438 -105.820312 56.753906 -106.203125 58.609375 -106.453125 C 60.460938 -106.710938 62.410156 -106.84375 64.453125 -106.84375 C 73.398438 -106.84375 80.816406 -104.609375 86.703125 -100.140625 C 90.285156 -97.453125 93.226562 -94.125 95.53125 -90.15625 C 98.726562 -93.738281 102.117188 -96.9375 105.703125 -99.75 C 106.972656 -100.644531 108.3125 -101.472656 109.71875 -102.234375 C 111.125 -103.003906 112.59375 -103.675781 114.125 -104.25 C 115.664062 -104.832031 117.234375 -105.3125 118.828125 -105.6875 C 120.429688 -106.070312 122.0625 -106.359375 123.71875 -106.546875 C 125.382812 -106.742188 127.113281 -106.84375 128.90625 -106.84375 C 129.675781 -106.84375 130.410156 -106.84375 131.109375 -106.84375 C 131.816406 -106.84375 132.519531 -106.8125 133.21875 -106.75 C 133.925781 -106.6875 134.628906 -106.585938 135.328125 -106.453125 C 136.035156 -106.328125 136.707031 -106.203125 137.34375 -106.078125 C 137.988281 -105.953125 138.628906 -105.820312 139.265625 -105.6875 C 139.898438 -105.5625 140.535156 -105.40625 141.171875 -105.21875 C 141.816406 -105.03125 142.457031 -104.804688 143.09375 -104.546875 C 143.738281 -104.285156 144.378906 -104.03125 145.015625 -103.78125 C 146.171875 -103.269531 147.289062 -102.691406 148.375 -102.046875 C 149.46875 -101.410156 150.492188 -100.707031 151.453125 -99.9375 C 152.410156 -99.175781 153.335938 -98.378906 154.234375 -97.546875 C 155.128906 -96.710938 155.957031 -95.785156 156.71875 -94.765625 C 159.914062 -91.054688 162.21875 -86.644531 163.625 -81.53125 C 165.164062 -76.539062 165.9375 -71.039062 165.9375 -65.03125 L 165.9375 4.796875 L 139.078125 4.796875 L 139.078125 -63.6875 C 139.078125 -69.570312 137.796875 -74.238281 135.234375 -77.6875 C 132.929688 -80.632812 129.800781 -82.109375 125.84375 -82.109375 C 123.539062 -82.109375 121.363281 -81.660156 119.3125 -80.765625 C 117.007812 -79.734375 114.835938 -78.390625 112.796875 -76.734375 C 110.617188 -74.941406 108.507812 -72.894531 106.46875 -70.59375 C 105.695312 -69.570312 104.863281 -68.484375 103.96875 -67.328125 C 103.070312 -66.179688 102.304688 -65.097656 101.671875 -64.078125 L 101.671875 4.796875 L 74.8125 4.796875 L 74.8125 -63.6875 C 74.8125 -69.570312 73.53125 -74.238281 70.96875 -77.6875 C 68.675781 -80.632812 65.546875 -82.109375 61.578125 -82.109375 C 59.398438 -82.109375 57.222656 -81.660156 55.046875 -80.765625 C 54.023438 -80.378906 52.9375 -79.863281 51.78125 -79.21875 C 50.632812 -78.582031 49.550781 -77.816406 48.53125 -76.921875 C 48.144531 -76.671875 47.757812 -76.382812 47.375 -76.0625 C 47 -75.738281 46.648438 -75.414062 46.328125 -75.09375 C 46.003906 -74.78125 45.648438 -74.460938 45.265625 -74.140625 C 44.890625 -73.816406 44.539062 -73.492188 44.21875 -73.171875 C 43.894531 -72.859375 43.570312 -72.507812 43.25 -72.125 C 42.9375 -71.738281 42.585938 -71.351562 42.203125 -70.96875 C 41.429688 -69.945312 40.597656 -68.894531 39.703125 -67.8125 C 38.804688 -66.726562 38.039062 -65.671875 37.40625 -64.640625 L 37.40625 4.796875 L 10.546875 4.796875 L 10.546875 -104.546875 L 36.828125 -104.546875 Z M 36.828125 -95.90625 "/></g></g></g></g></g></svg>