<svg xmlns="http://www.w3.org/2000/svg" xmlns:xlink="http://www.w3.org/1999/xlink" width="1024" zoomAndPan="magnify" viewBox="0 0 768 141.000003" height="188" preserveAspectRatio="xMidYMid meet" version="1.0"><defs><g/></defs><g fill="#000000" fill-opacity="1"><g transform="translate(4.077292, 98.1293)"><g><path d="M 87.671875 -68.546875 C 96.890625 -68.640625 104.375 -65.894531 110.125 -60.3125 C 116.320312 -54.46875 119.421875 -46.273438 119.421875 -35.734375 L 119.421875 0 L 102.15625 0 L 102.15625 -34.546875 C 102.15625 -35.867188 101.9375 -37.375 101.5 -39.0625 C 100.875 -41.09375 100.03125 -42.90625 98.96875 -44.5 C 96.132812 -49.019531 91.972656 -51.28125 86.484375 -51.28125 C 80.640625 -51.28125 76.390625 -49.019531 73.734375 -44.5 C 72.753906 -42.820312 72.046875 -40.921875 71.609375 -38.796875 C 71.253906 -37.285156 71.078125 -35.78125 71.078125 -34.28125 L 71.078125 0 L 53.671875 0 L 53.671875 -34.546875 C 53.671875 -35.867188 53.445312 -37.375 53 -39.0625 C 52.46875 -41.09375 51.671875 -42.90625 50.609375 -44.5 C 47.691406 -49.019531 43.53125 -51.28125 38.125 -51.28125 C 32.1875 -51.28125 27.890625 -49.019531 25.234375 -44.5 C 24.265625 -42.820312 23.554688 -40.921875 23.109375 -38.796875 C 22.753906 -37.285156 22.578125 -35.78125 22.578125 -34.28125 L 22.578125 0 L 3.984375 0 L 3.984375 -68.6875 L 22.578125 -68.6875 L 22.578125 -61.5 C 26.921875 -66.195312 32.503906 -68.546875 39.328125 -68.546875 C 49.328125 -68.722656 57.425781 -64.867188 63.625 -56.984375 L 69.21875 -62.171875 C 74.4375 -66.421875 80.585938 -68.546875 87.671875 -68.546875 Z M 87.671875 -68.546875 "/></g></g></g><g fill="#000000" fill-opacity="1"><g transform="translate(127.484838, 98.1293)"><g><path d="M 53.140625 -68.6875 L 71.734375 -68.6875 L 71.734375 0 L 53.140625 0 L 53.140625 -7.703125 C 49.328125 -2.742188 43.570312 -0.265625 35.875 -0.265625 C 26.476562 -0.179688 18.414062 -3.457031 11.6875 -10.09375 C 4.957031 -16.738281 1.550781 -24.800781 1.46875 -34.28125 C 1.375 -43.664062 4.648438 -51.722656 11.296875 -58.453125 C 17.929688 -65.179688 25.988281 -68.59375 35.46875 -68.6875 C 43.257812 -68.6875 49.148438 -66.160156 53.140625 -61.109375 Z M 47.5625 -22.578125 C 50.832031 -25.859375 52.46875 -29.847656 52.46875 -34.546875 C 52.46875 -39.328125 50.785156 -43.3125 47.421875 -46.5 C 44.054688 -49.863281 40.117188 -51.457031 35.609375 -51.28125 C 30.910156 -51.28125 26.921875 -49.640625 23.640625 -46.359375 C 20.367188 -43.085938 18.734375 -39.101562 18.734375 -34.40625 C 18.734375 -29.800781 20.414062 -25.816406 23.78125 -22.453125 C 27.050781 -19.171875 31.035156 -17.53125 35.734375 -17.53125 C 40.515625 -17.707031 44.457031 -19.390625 47.5625 -22.578125 Z M 47.5625 -22.578125 "/></g></g></g><g fill="#000000" fill-opacity="1"><g transform="translate(200.811965, 98.1293)"><g><path d="M 31.609375 0 C 27.003906 0 22.976562 -0.707031 19.53125 -2.125 C 16.78125 -3.101562 13.945312 -4.921875 11.03125 -7.578125 C 5.976562 -12.265625 3.675781 -18.195312 4.125 -25.375 L 4.125 -26.828125 L 19 -26.5625 L 20.1875 -26.5625 L 20.1875 -25.5 C 20.28125 -23.289062 20.769531 -21.476562 21.65625 -20.0625 C 23.15625 -17.488281 26.472656 -16.203125 31.609375 -16.203125 C 35.867188 -16.203125 38.925781 -16.691406 40.78125 -17.671875 C 41.757812 -18.109375 42.425781 -18.679688 42.78125 -19.390625 C 42.957031 -19.660156 43.046875 -19.925781 43.046875 -20.1875 L 43.171875 -20.859375 C 43.171875 -22.710938 41.710938 -24.21875 38.796875 -25.375 C 37.640625 -25.8125 36.3125 -26.164062 34.8125 -26.4375 C 33.65625 -26.695312 32.367188 -26.914062 30.953125 -27.09375 C 25.640625 -27.625 21.210938 -28.6875 17.671875 -30.28125 C 14.128906 -31.695312 11.207031 -33.648438 8.90625 -36.140625 C 5.71875 -39.765625 4.125 -43.925781 4.125 -48.625 C 4.125 -51.539062 4.65625 -54.238281 5.71875 -56.71875 C 6.507812 -58.664062 7.570312 -60.394531 8.90625 -61.90625 C 13.6875 -67.394531 21.34375 -70.140625 31.875 -70.140625 C 38.164062 -70.140625 43.484375 -68.898438 47.828125 -66.421875 C 51.191406 -64.554688 53.890625 -62.03125 55.921875 -58.84375 C 57.515625 -56.457031 58.625 -53.671875 59.25 -50.484375 C 59.425781 -49.421875 59.554688 -48.398438 59.640625 -47.421875 L 59.640625 -44.640625 L 43.578125 -44.640625 L 43.578125 -46.625 C 43.484375 -46.976562 43.4375 -47.332031 43.4375 -47.6875 C 43.175781 -48.664062 42.820312 -49.460938 42.375 -50.078125 C 40.425781 -52.734375 36.925781 -54.0625 31.875 -54.0625 C 24.4375 -54.0625 20.71875 -52.515625 20.71875 -49.421875 C 20.71875 -47.828125 21.601562 -46.539062 23.375 -45.5625 C 25.238281 -44.414062 28.382812 -43.578125 32.8125 -43.046875 C 43 -41.984375 50.394531 -38.75 55 -33.34375 C 58.09375 -29.707031 59.640625 -25.546875 59.640625 -20.859375 L 59.640625 -19.921875 L 59.515625 -18.734375 C 59.515625 -17.578125 59.378906 -16.515625 59.109375 -15.546875 C 58.398438 -12.710938 57.070312 -10.1875 55.125 -7.96875 C 52.914062 -5.3125 49.816406 -3.320312 45.828125 -2 C 41.847656 -0.664062 37.109375 0 31.609375 0 Z M 31.609375 0 "/></g></g></g><g fill="#000000" fill-opacity="1"><g transform="translate(264.441925, 98.1293)"><g><path d="M 61.234375 -28.5625 C 61.234375 -24.84375 60.484375 -21.125 58.984375 -17.40625 C 57.566406 -14.039062 55.53125 -11.03125 52.875 -8.375 C 50.125 -5.625 47.066406 -3.539062 43.703125 -2.125 C 40.335938 -0.707031 36.617188 0 32.546875 0 C 28.554688 0 24.878906 -0.707031 21.515625 -2.125 C 18.148438 -3.539062 15.097656 -5.625 12.359375 -8.375 C 9.785156 -10.757812 7.75 -13.769531 6.25 -17.40625 C 4.738281 -21.125 3.984375 -24.84375 3.984375 -28.5625 L 3.984375 -64.03125 C 3.984375 -67.75 4.738281 -71.46875 6.25 -75.1875 C 7.75 -78.644531 9.785156 -81.65625 12.359375 -84.21875 C 14.921875 -86.789062 17.972656 -88.828125 21.515625 -90.328125 C 25.054688 -91.835938 28.734375 -92.59375 32.546875 -92.59375 C 36.441406 -92.59375 40.160156 -91.835938 43.703125 -90.328125 C 47.242188 -88.828125 50.300781 -86.789062 52.875 -84.21875 C 55.53125 -81.382812 57.566406 -78.375 58.984375 -75.1875 C 60.484375 -71.46875 61.234375 -67.75 61.234375 -64.03125 Z M 42.640625 -64.03125 C 42.640625 -66.78125 41.664062 -69.128906 39.71875 -71.078125 C 37.6875 -73.023438 35.296875 -74 32.546875 -74 C 29.796875 -74 27.445312 -73.023438 25.5 -71.078125 C 23.550781 -69.128906 22.578125 -66.78125 22.578125 -64.03125 L 22.578125 -28.5625 C 22.578125 -25.8125 23.550781 -23.460938 25.5 -21.515625 C 27.445312 -19.566406 29.796875 -18.59375 32.546875 -18.59375 C 35.378906 -18.59375 37.769531 -19.566406 39.71875 -21.515625 C 41.664062 -23.460938 42.640625 -25.8125 42.640625 -28.5625 Z M 42.640625 -64.03125 "/></g></g></g><g fill="#000000" fill-opacity="1"><g transform="translate(329.665912, 98.1293)"><g><path d="M 38 -68.15625 C 47.738281 -68.945312 55.796875 -66.421875 62.171875 -60.578125 C 68.992188 -54.285156 72.40625 -45.472656 72.40625 -34.140625 L 72.40625 0 L 55.125 0 L 55.125 -33.75 L 55 -33.75 L 55 -34.015625 C 55 -38.703125 53.359375 -42.6875 50.078125 -45.96875 C 46.804688 -49.238281 42.820312 -50.875 38.125 -50.875 C 33.34375 -50.695312 29.359375 -49.015625 26.171875 -45.828125 C 22.804688 -42.460938 21.210938 -38.476562 21.390625 -33.875 L 21.390625 -33.75 L 21.25 -33.75 L 21.25 0 L 2.65625 0 L 2.65625 -68.6875 L 21.25 -68.6875 L 21.25 -59.78125 C 25.414062 -64.738281 31 -67.53125 38 -68.15625 Z M 38 -68.15625 "/></g></g></g><g fill="#000000" fill-opacity="1"><g transform="translate(404.720006, 98.1293)"><g><path d="M 55 -68.546875 L 72.40625 -68.546875 L 72.40625 -0.140625 C 72.40625 9.253906 69.082031 17.269531 62.4375 23.90625 C 55.882812 30.550781 47.914062 33.921875 38.53125 34.015625 C 29.757812 34.097656 22.097656 31.21875 15.546875 25.375 C 9.078125 19.707031 5.359375 12.578125 4.390625 3.984375 L 21.921875 3.984375 C 22.535156 6.816406 24.039062 9.429688 26.4375 11.828125 C 29.707031 15.097656 33.691406 16.734375 38.390625 16.734375 C 43.085938 16.734375 47.03125 15.050781 50.21875 11.6875 C 53.488281 8.414062 55.125 4.472656 55.125 -0.140625 L 55 -6.90625 C 50.476562 -2.394531 44.988281 -0.140625 38.53125 -0.140625 C 29.050781 -0.046875 20.945312 -3.320312 14.21875 -9.96875 C 7.488281 -16.601562 4.125 -24.660156 4.125 -34.140625 C 4.03125 -43.617188 7.304688 -51.675781 13.953125 -58.3125 C 20.585938 -65.050781 28.644531 -68.460938 38.125 -68.546875 C 45.65625 -68.546875 51.28125 -66.195312 55 -61.5 Z M 55 -36.265625 C 54.644531 -40.160156 53.003906 -43.523438 50.078125 -46.359375 C 46.710938 -49.546875 42.726562 -51.140625 38.125 -51.140625 C 33.519531 -51.140625 29.578125 -49.503906 26.296875 -46.234375 C 23.023438 -42.773438 21.390625 -38.789062 21.390625 -34.28125 C 21.390625 -29.664062 23.070312 -25.675781 26.4375 -22.3125 C 29.707031 -19.039062 33.691406 -17.40625 38.390625 -17.40625 C 43.171875 -17.582031 47.113281 -19.265625 50.21875 -22.453125 C 52.957031 -25.191406 54.550781 -28.46875 55 -32.28125 Z M 55 -36.265625 "/></g></g></g><g fill="#000000" fill-opacity="1"><g transform="translate(481.10254, 98.1293)"><g><path d="M 22.578125 0 L 3.984375 0 L 3.984375 -18.59375 L 22.578125 -18.59375 Z M 22.578125 0 "/></g></g></g><g fill="#000000" fill-opacity="1"><g transform="translate(507.670356, 98.1293)"><g><path d="M 58.71875 -8.234375 C 52.25 -2.742188 44.722656 0 36.140625 0 C 26.660156 -0.09375 18.597656 -3.503906 11.953125 -10.234375 C 5.316406 -16.960938 2.039062 -25.019531 2.125 -34.40625 C 2.21875 -43.882812 5.628906 -51.941406 12.359375 -58.578125 C 19.085938 -65.222656 27.144531 -68.503906 36.53125 -68.421875 C 45.03125 -68.328125 52.46875 -65.488281 58.84375 -59.90625 L 46.5 -47.6875 C 43.488281 -49.90625 40.125 -51.015625 36.40625 -51.015625 C 31.789062 -51.015625 27.800781 -49.421875 24.4375 -46.234375 C 21.164062 -42.953125 19.53125 -38.96875 19.53125 -34.28125 C 19.351562 -29.664062 20.945312 -25.675781 24.3125 -22.3125 C 27.5 -19.125 31.484375 -17.441406 36.265625 -17.265625 C 39.984375 -17.265625 43.347656 -18.375 46.359375 -20.59375 Z M 58.71875 -8.234375 "/></g></g></g><g fill="#000000" fill-opacity="1"><g transform="translate(569.30775, 98.1293)"><g><path d="M 35.46875 -68.421875 C 44.945312 -68.503906 53.003906 -65.222656 59.640625 -58.578125 C 66.378906 -51.847656 69.75 -43.789062 69.75 -34.40625 C 69.832031 -24.925781 66.550781 -16.867188 59.90625 -10.234375 C 53.269531 -3.503906 45.257812 -0.09375 35.875 0 C 26.394531 0.09375 18.289062 -3.179688 11.5625 -9.828125 C 4.832031 -16.472656 1.46875 -24.535156 1.46875 -34.015625 C 1.375 -43.484375 4.648438 -51.539062 11.296875 -58.1875 C 17.929688 -64.914062 25.988281 -68.328125 35.46875 -68.421875 Z M 47.5625 -22.3125 C 50.832031 -25.59375 52.46875 -29.582031 52.46875 -34.28125 C 52.46875 -38.882812 50.785156 -42.867188 47.421875 -46.234375 C 44.054688 -49.421875 40.070312 -51.015625 35.46875 -51.015625 C 30.863281 -51.015625 26.921875 -49.375 23.640625 -46.09375 C 20.367188 -42.644531 18.734375 -38.660156 18.734375 -34.140625 C 18.734375 -29.535156 20.414062 -25.550781 23.78125 -22.1875 C 27.050781 -18.90625 31.035156 -17.265625 35.734375 -17.265625 C 40.515625 -17.441406 44.457031 -19.125 47.5625 -22.3125 Z M 47.5625 -22.3125 "/></g></g></g><g fill="#000000" fill-opacity="1"><g transform="translate(640.509528, 98.1293)"><g><path d="M 87.671875 -68.546875 C 96.890625 -68.640625 104.375 -65.894531 110.125 -60.3125 C 116.320312 -54.46875 119.421875 -46.273438 119.421875 -35.734375 L 119.421875 0 L 102.15625 0 L 102.15625 -34.546875 C 102.15625 -35.867188 101.9375 -37.375 101.5 -39.0625 C 100.875 -41.09375 100.03125 -42.90625 98.96875 -44.5 C 96.132812 -49.019531 91.972656 -51.28125 86.484375 -51.28125 C 80.640625 -51.28125 76.390625 -49.019531 73.734375 -44.5 C 72.753906 -42.820312 72.046875 -40.921875 71.609375 -38.796875 C 71.253906 -37.285156 71.078125 -35.78125 71.078125 -34.28125 L 71.078125 0 L 53.671875 0 L 53.671875 -34.546875 C 53.671875 -35.867188 53.445312 -37.375 53 -39.0625 C 52.46875 -41.09375 51.671875 -42.90625 50.609375 -44.5 C 47.691406 -49.019531 43.53125 -51.28125 38.125 -51.28125 C 32.1875 -51.28125 27.890625 -49.019531 25.234375 -44.5 C 24.265625 -42.820312 23.554688 -40.921875 23.109375 -38.796875 C 22.753906 -37.285156 22.578125 -35.78125 22.578125 -34.28125 L 22.578125 0 L 3.984375 0 L 3.984375 -68.6875 L 22.578125 -68.6875 L 22.578125 -61.5 C 26.921875 -66.195312 32.503906 -68.546875 39.328125 -68.546875 C 49.328125 -68.722656 57.425781 -64.867188 63.625 -56.984375 L 69.21875 -62.171875 C 74.4375 -66.421875 80.585938 -68.546875 87.671875 -68.546875 Z M 87.671875 -68.546875 "/></g></g></g></svg>