<svg width="120" height="28" viewBox="0 0 120 28" fill="none" xmlns="http://www.w3.org/2000/svg">
<g clip-path="url(#clip0_149_34646)">
<path d="M9.48443 9.2793V11.0816H5.86666V22.7483H3.63733V11.0816H0V9.2793H9.48443Z" fill="white"/>
<path d="M16.4159 22.9226C15.399 22.9226 14.4799 22.6966 13.6586 22.2444C12.8373 21.7792 12.1919 21.1332 11.7226 20.3064C11.2533 19.4666 11.0186 18.4976 11.0186 17.3994C11.0186 16.3141 11.2598 15.3516 11.7421 14.5119C12.2245 13.672 12.8829 13.026 13.7173 12.5739C14.5516 12.1216 15.4838 11.8955 16.5137 11.8955C17.5436 11.8955 18.4758 12.1216 19.3101 12.5739C20.1445 13.026 20.8028 13.672 21.2852 14.5119C21.7676 15.3516 22.0087 16.3141 22.0087 17.3994C22.0087 18.4847 21.7611 19.4472 21.2657 20.287C20.7703 21.1268 20.0923 21.7792 19.2319 22.2444C18.3845 22.6966 17.4458 22.9226 16.4159 22.9226ZM16.4159 21.004C16.9895 21.004 17.524 20.8684 18.0194 20.5971C18.5279 20.3258 18.9386 19.9188 19.2514 19.3761C19.5643 18.8335 19.7208 18.1746 19.7208 17.3994C19.7208 16.6242 19.5708 15.9718 19.271 15.442C18.9712 14.8994 18.5735 14.4925 18.0781 14.2212C17.5827 13.9498 17.0482 13.8141 16.4746 13.8141C15.9009 13.8141 15.3664 13.9498 14.871 14.2212C14.3886 14.4925 14.004 14.8994 13.7173 15.442C13.4304 15.9718 13.287 16.6242 13.287 17.3994C13.287 18.5492 13.5804 19.4407 14.167 20.0739C14.7667 20.694 15.5164 21.004 16.4159 21.004Z" fill="white"/>
<path d="M26.4423 13.6397C26.8204 13.1487 27.3353 12.7353 27.9872 12.3994C28.639 12.0635 29.3756 11.8955 30.1969 11.8955C31.1356 11.8955 31.9895 12.1281 32.7587 12.5932C33.5409 13.0454 34.1537 13.6849 34.5969 14.5119C35.0402 15.3387 35.2618 16.2883 35.2618 17.3606C35.2618 18.433 35.0402 19.3955 34.5969 20.2483C34.1537 21.088 33.5409 21.747 32.7587 22.225C31.9895 22.6901 31.1356 22.9226 30.1969 22.9226C29.3756 22.9226 28.6455 22.7612 28.0067 22.4382C27.3678 22.1023 26.8464 21.6888 26.4423 21.1979V27.8258H24.2129V12.0699H26.4423V13.6397ZM32.9933 17.3606C32.9933 16.6242 32.8369 15.9912 32.524 15.4614C32.2242 14.9188 31.82 14.5119 31.3116 14.2405C30.8162 13.9563 30.2817 13.8141 29.708 13.8141C29.1474 13.8141 28.6129 13.9563 28.1045 14.2405C27.6091 14.5247 27.2049 14.9382 26.892 15.4808C26.5922 16.0234 26.4423 16.663 26.4423 17.3994C26.4423 18.1359 26.5922 18.7819 26.892 19.3374C27.2049 19.88 27.6091 20.2935 28.1045 20.5777C28.6129 20.8619 29.1474 21.004 29.708 21.004C30.2817 21.004 30.8162 20.8619 31.3116 20.5777C31.82 20.2806 32.2242 19.8542 32.524 19.2986C32.8369 18.7431 32.9933 18.0971 32.9933 17.3606Z" fill="white"/>
<path d="M51.7804 9.2793V22.7483H49.5511V13.5235L45.4054 22.7483H43.8605L39.6951 13.5235V22.7483H37.4658V9.2793H39.8711L44.6427 19.8413L49.3947 9.2793H51.7804Z" fill="white"/>
<path d="M64.5855 17.1475C64.5855 17.548 64.5594 17.9098 64.5072 18.2327H56.2744C56.3396 19.0854 56.659 19.7702 57.2325 20.287C57.8062 20.8038 58.5102 21.0622 59.3445 21.0622C60.544 21.0622 61.3914 20.5648 61.8868 19.5699H64.2921C63.9662 20.5519 63.373 21.3593 62.5125 21.9925C61.6651 22.6126 60.6091 22.9226 59.3445 22.9226C58.3146 22.9226 57.3891 22.6966 56.5677 22.2444C55.7594 21.7792 55.1205 21.1332 54.6512 20.3064C54.195 19.4666 53.9668 18.4976 53.9668 17.3994C53.9668 16.3012 54.1884 15.3387 54.6317 14.5119C55.088 13.672 55.7203 13.026 56.5285 12.5739C57.3499 12.1216 58.2885 11.8955 59.3445 11.8955C60.3615 11.8955 61.2675 12.1152 62.0628 12.5545C62.858 12.9938 63.4773 13.6139 63.9205 14.4149C64.3638 15.2031 64.5855 16.1139 64.5855 17.1475ZM62.2584 16.4498C62.2453 15.6359 61.952 14.9834 61.3784 14.4925C60.8047 14.0015 60.0942 13.756 59.2468 13.756C58.4776 13.756 57.8192 14.0015 57.2717 14.4925C56.7241 14.9705 56.3982 15.6229 56.2939 16.4498H62.2584Z" fill="white"/>
<path d="M66.0371 17.3607C66.0371 16.2883 66.2588 15.3388 66.7021 14.5119C67.1583 13.685 67.7711 13.0455 68.5402 12.5933C69.3225 12.1282 70.1895 11.8956 71.1411 11.8956C71.8451 11.8956 72.5361 12.0506 73.2141 12.3607C73.905 12.6578 74.4526 13.0583 74.8567 13.5623V8.40723H77.1055V22.7483H74.8567V21.1397C74.4916 21.6566 73.9832 22.083 73.3314 22.4189C72.6926 22.7548 71.956 22.9227 71.1215 22.9227C70.1829 22.9227 69.3225 22.6902 68.5402 22.225C67.7711 21.747 67.1583 21.0881 66.7021 20.2483C66.2588 19.3956 66.0371 18.433 66.0371 17.3607ZM74.8567 17.3995C74.8567 16.663 74.7002 16.0235 74.3874 15.4809C74.0875 14.9383 73.6899 14.5248 73.1945 14.2405C72.6991 13.9563 72.1646 13.8142 71.5909 13.8142C71.0173 13.8142 70.4828 13.9563 69.9874 14.2405C69.492 14.5119 69.0878 14.9189 68.7749 15.4615C68.4751 15.9912 68.3251 16.6243 68.3251 17.3607C68.3251 18.0971 68.4751 18.7431 68.7749 19.2987C69.0878 19.8543 69.492 20.2806 69.9874 20.5777C70.4958 20.862 71.0303 21.0041 71.5909 21.0041C72.1646 21.0041 72.6991 20.862 73.1945 20.5777C73.6899 20.2936 74.0875 19.8801 74.3874 19.3375C74.7002 18.7819 74.8567 18.1359 74.8567 17.3995Z" fill="white"/>
<path d="M81.1677 10.6552C80.7636 10.6552 80.4247 10.5195 80.1508 10.2482C79.8771 9.97681 79.7402 9.6409 79.7402 9.24038C79.7402 8.83986 79.8771 8.50398 80.1508 8.23266C80.4247 7.96134 80.7636 7.82568 81.1677 7.82568C81.5588 7.82568 81.8913 7.96134 82.1651 8.23266C82.4388 8.50398 82.5757 8.83986 82.5757 9.24038C82.5757 9.6409 82.4388 9.97681 82.1651 10.2482C81.8913 10.5195 81.5588 10.6552 81.1677 10.6552ZM82.2628 12.0699V22.7482H80.0335V12.0699H82.2628Z" fill="white"/>
<path d="M99.3378 23.4036H95.8352L94.7813 20.3932H89.3483L88.2943 23.4036H84.792L90.5639 8.4043H93.5839L99.3378 23.4036ZM92.083 13.044H92.0465L90.457 17.4004H93.6735L92.083 13.044Z" fill="white"/>
<path d="M99.3378 23.4036H95.8352L94.7813 20.3932H89.3483L88.2943 23.4036H84.792L90.5639 8.4043H93.5839L99.3378 23.4036ZM92.083 13.044H92.0465L90.457 17.4004H93.6735L92.083 13.044Z" fill="url(#paint0_linear_149_34646)"/>
<path d="M104.002 10.0506C104.002 11.0954 103.145 11.9454 102.09 11.9454C101.036 11.9454 100.178 11.0954 100.178 10.0506C100.178 9.00576 101.036 8.15576 102.09 8.15576C103.145 8.15576 104.002 9.00576 104.002 10.0506ZM100.428 23.4031H103.662V14.0882H100.428V23.4031Z" fill="white"/>
<path d="M104.002 10.0506C104.002 11.0954 103.145 11.9454 102.09 11.9454C101.036 11.9454 100.178 11.0954 100.178 10.0506C100.178 9.00576 101.036 8.15576 102.09 8.15576C103.145 8.15576 104.002 9.00576 104.002 10.0506ZM100.428 23.4031H103.662V14.0882H100.428V23.4031Z" fill="url(#paint1_linear_149_34646)"/>
<path d="M84.792 23.4032H88.2943C88.5265 23.2262 92.0648 14.956 105.217 12.6716C105.217 12.6893 93.2083 10.5821 84.792 23.4032Z" fill="#FFD3D3"/>
<path d="M105.217 12.6895C92.1016 13.0613 86.6152 23.4033 86.6152 23.4033H88.2946C88.5268 23.2262 92.0651 14.9561 105.217 12.6895Z" fill="#F3B5B5"/>
<path d="M112.33 11.2782V6.05555H113.888C114.375 6.05555 114.764 6.10831 115.056 6.21381C115.356 6.31932 115.572 6.4857 115.702 6.71294C115.84 6.93208 115.909 7.21614 115.909 7.56512C115.909 7.88164 115.819 8.15353 115.641 8.38077C115.463 8.60801 115.195 8.7906 114.837 8.9286L116.298 11.2782H115.324L114.07 9.14773H113.17V11.2782H112.33ZM113.17 8.50251H113.888C114.27 8.50251 114.553 8.42541 114.74 8.27121C114.935 8.11701 115.032 7.88975 115.032 7.58947C115.032 7.2486 114.927 7.02135 114.716 6.90773C114.513 6.78599 114.221 6.72512 113.839 6.72512H113.17V8.50251ZM113.912 13.7129C113.223 13.7129 112.573 13.5831 111.964 13.3234C111.356 13.0636 110.82 12.7066 110.357 12.2521C109.903 11.7895 109.546 11.2538 109.286 10.6451C109.026 10.0364 108.896 9.38712 108.896 8.69729C108.896 7.99932 109.026 7.35005 109.286 6.74947C109.546 6.14077 109.903 5.60918 110.357 5.15468C110.82 4.69208 111.356 4.33092 111.964 4.07121C112.573 3.81149 113.223 3.68164 113.912 3.68164C114.61 3.68164 115.259 3.81149 115.86 4.07121C116.469 4.33092 117 4.69208 117.455 5.15468C117.917 5.60918 118.278 6.14077 118.538 6.74947C118.798 7.35005 118.928 7.99932 118.928 8.69729C118.928 9.38712 118.798 10.0364 118.538 10.6451C118.278 11.2538 117.917 11.7895 117.455 12.2521C117 12.7066 116.469 13.0636 115.86 13.3234C115.259 13.5831 114.61 13.7129 113.912 13.7129ZM113.912 13.0312C114.513 13.0312 115.073 12.9216 115.592 12.7025C116.12 12.4753 116.583 12.1628 116.98 11.7651C117.377 11.3675 117.686 10.9089 117.905 10.3895C118.132 9.8619 118.246 9.2979 118.246 8.69729C118.246 8.09671 118.132 7.53671 117.905 7.01729C117.686 6.48975 117.377 6.02714 116.98 5.62947C116.583 5.23179 116.12 4.92338 115.592 4.70425C115.073 4.47701 114.513 4.36338 113.912 4.36338C113.311 4.36338 112.748 4.47701 112.22 4.70425C111.701 4.92338 111.242 5.23179 110.844 5.62947C110.447 6.02714 110.134 6.48975 109.907 7.01729C109.688 7.53671 109.578 8.09671 109.578 8.69729C109.578 9.2979 109.688 9.8619 109.907 10.3895C110.134 10.9089 110.447 11.3675 110.844 11.7651C111.242 12.1628 111.701 12.4753 112.22 12.7025C112.748 12.9216 113.311 13.0312 113.912 13.0312Z" fill="white"/>
</g>
<defs>
<linearGradient id="paint0_linear_149_34646" x1="105.217" y1="11.8332" x2="92.1456" y2="53.0455" gradientUnits="userSpaceOnUse">
<stop stop-color="#2AC3FF"/>
<stop offset="0.512584" stop-color="#C700FF"/>
<stop offset="1" stop-color="#FFB400"/>
</linearGradient>
<linearGradient id="paint1_linear_149_34646" x1="68.4019" y1="5.80154" x2="65.7477" y2="35.0041" gradientUnits="userSpaceOnUse">
<stop stop-color="#2AC3FF"/>
<stop offset="0.489586" stop-color="#C700FF"/>
<stop offset="1" stop-color="#FFB400"/>
</linearGradient>
<clipPath id="clip0_149_34646">
<rect width="120" height="27.8261" fill="white"/>
</clipPath>
</defs>
</svg>
